<svg id="HOME_SETTING" xmlns="http://www.w3.org/2000/svg" viewBox="0 0 15.66 16">
  <defs>
    <style>
      .cls-1 {
        fill: #50c1ff;
      }
    </style>
  </defs>
  <title>icon-document</title>
  <path class="cls-1" d="M2448,1565.38v14a1,1,0,0,0,1,1h13.66a1,1,0,0,0,1-1v-14a1,1,0,0,0-1-1H2449A1,1,0,0,0,2448,1565.38Zm11.23,11.13h-6.81a0.85,0.85,0,0,1-.85-0.85h0a0.85,0.85,0,0,1,.85-0.85h6.81a0.85,0.85,0,0,1,.85.85h0A0.85,0.85,0,0,1,2459.23,1576.51Zm0-3.28h-6.81a0.85,0.85,0,0,1-.85-0.85h0a0.85,0.85,0,0,1,.85-0.85h6.81a0.85,0.85,0,0,1,.85.85h0A0.85,0.85,0,0,1,2459.23,1573.23Zm0-3.28h-6.81a0.85,0.85,0,0,1-.85-0.85h0a0.85,0.85,0,0,1,.85-0.85h6.81a0.85,0.85,0,0,1,.85.85h0A0.85,0.85,0,0,1,2459.23,1570Z" transform="translate(-2448 -1564.38)"/>
</svg>
