<svg id="プロフィール編集" xmlns="http://www.w3.org/2000/svg" viewBox="0 0 23.52 14.94">
  <defs>
    <style>
      .cls-1 {
        fill: #fff;
      }
    </style>
  </defs>
  <title>icon-google</title>
  <g>
    <path class="cls-1" d="M1898.15,999.09a7.45,7.45,0,0,1,7.45-7.09,7.57,7.57,0,0,1,5,1.84,26.59,26.59,0,0,1-1.89,2,4.93,4.93,0,0,0-5.81-.15,4.78,4.78,0,0,0-.2,7.45c2.27,2.06,6.57,1,7.19-2.12-1.42,0-2.85,0-4.27,0,0-.85,0-1.7,0-2.55,2.38,0,4.76,0,7.14,0a8.56,8.56,0,0,1-1.35,5.77,7.37,7.37,0,0,1-8.5,2.26A7.48,7.48,0,0,1,1898.15,999.09Z" transform="translate(-1898.13 -991.99)"/>
    <path class="cls-1" d="M1917.38,996.25h2.12c0,0.71,0,1.42,0,2.13h2.13v2.12l-2.13,0q0,1.07,0,2.13h-2.13c0-.71,0-1.42,0-2.13l-2.13,0V998.4h2.13Q1917.37,997.31,1917.38,996.25Z" transform="translate(-1898.13 -991.99)"/>
  </g>
</svg>
