<svg id="プロフィール" xmlns="http://www.w3.org/2000/svg" width="13.14" height="16" viewBox="0 0 13.14 16">
  <defs>
    <style>
      .cls-1 {
        fill: #50c1ff;
      }
    </style>
  </defs>
  <title>icon-alien-eye</title>
  <g>
    <path class="cls-1" d="M3042.93,1730.37h0a2.49,2.49,0,0,1-.3-0.22,3.67,3.67,0,0,1-.79-0.89,4.49,4.49,0,0,1-.53-1.17,3.6,3.6,0,0,1-.13-0.59,3.66,3.66,0,0,0-.13.61,5,5,0,0,0,0,1.42,4.8,4.8,0,0,0,.26,1,6.5,6.5,0,0,0-.79.25,2.94,2.94,0,0,1-.45-0.24,3,3,0,0,1-.51-0.4,3.46,3.46,0,0,1-.5-0.58,4.63,4.63,0,0,1-.65-1.38,4,4,0,0,1-.15-0.71,4,4,0,0,0-.11.74,5.17,5.17,0,0,0,.14,1.69,4.46,4.46,0,0,0,.33.9,4.27,4.27,0,0,0,.45.74l0,0A6.56,6.56,0,1,0,3042.93,1730.37Zm0,11.46a4.89,4.89,0,1,1,4.89-4.89A4.9,4.9,0,0,1,3042.91,1741.83Z" transform="translate(-3036.34 -1727.51)"/>
    <path class="cls-1" d="M3042.91,1733.89a3.05,3.05,0,1,0,3.05,3.05A3.05,3.05,0,0,0,3042.91,1733.89Zm0.81,3.54a1.24,1.24,0,1,1,1.24-1.24A1.24,1.24,0,0,1,3043.72,1737.42Z" transform="translate(-3036.34 -1727.51)"/>
  </g>
</svg>
