<svg id="HOME_SETTING" xmlns="http://www.w3.org/2000/svg" viewBox="0 0 19.6 18.75">
  <defs>
    <style>
      .cls-1 {
        fill: #50c1ff;
      }
    </style>
  </defs>
  <title>icon-signout</title>
  <g>
    <path class="cls-1" d="M2464.95,1622.38h-1.18a7.94,7.94,0,1,0-15.87,0h-1.18a0.68,0.68,0,1,0,0,1.36l18.24,0A0.68,0.68,0,0,0,2464.95,1622.38Zm-13.28-.72a1.5,1.5,0,1,1,1.5-1.5A1.5,1.5,0,0,1,2451.67,1621.66Zm4.17,0a1.5,1.5,0,1,1,1.5-1.5A1.5,1.5,0,0,1,2455.83,1621.66Zm4.17,0a1.5,1.5,0,1,1,1.5-1.5A1.5,1.5,0,0,1,2460,1621.66Z" transform="translate(-2446.03 -1614.47)"/>
    <path class="cls-1" d="M2465,1630.14l-3.08-3.08v2h-5v-2.38a1.07,1.07,0,0,0-2.13,0v3.45a1.07,1.07,0,0,0,1.07,1.07h6v2Z" transform="translate(-2446.03 -1614.47)"/>
  </g>
</svg>
