<svg xmlns="http://www.w3.org/2000/svg" viewBox="0 0 24.72 27.1">
  <defs>
    <style>
      .cls-1 {
        isolation: isolate;
      }

      .cls-2 {
        opacity: 0.75;
        mix-blend-mode: overlay;
      }

      .cls-3 {
        fill: #fff;
      }
    </style>
  </defs>
  <title>icon-addsong</title>
  <g class="cls-1">
    <g id="MuFo詳細">
      <g>
        <g class="cls-2">
          <path d="M2315.62,2293.84a1.72,1.72,0,0,0,0-2.43l-6.91-6.91a1.72,1.72,0,0,0-2.94,1.22v10.55a5.88,5.88,0,1,0,3.44,5.35v-11.74l4,4A1.72,1.72,0,0,0,2315.62,2293.84Z" transform="translate(-2297.45 -2282.99)"/>
          <path d="M2320.91,2303.86h-2.46v-2.46a1.26,1.26,0,1,0-2.52,0v2.46h-2.46a1.26,1.26,0,0,0,0,2.52h2.46v2.46a1.26,1.26,0,1,0,2.52,0v-2.46h2.46A1.26,1.26,0,1,0,2320.91,2303.86Z" transform="translate(-2297.45 -2282.99)"/>
        </g>
        <g>
          <path class="cls-3" d="M2315.62,2292.84a1.72,1.72,0,0,0,0-2.43l-6.91-6.91a1.72,1.72,0,0,0-2.94,1.22v10.55a5.88,5.88,0,1,0,3.44,5.35v-11.74l4,4A1.72,1.72,0,0,0,2315.62,2292.84Z" transform="translate(-2297.45 -2282.99)"/>
          <path class="cls-3" d="M2320.91,2302.86h-2.46v-2.46a1.26,1.26,0,1,0-2.52,0v2.46h-2.46a1.26,1.26,0,0,0,0,2.52h2.46v2.46a1.26,1.26,0,1,0,2.52,0v-2.46h2.46A1.26,1.26,0,1,0,2320.91,2302.86Z" transform="translate(-2297.45 -2282.99)"/>
        </g>
      </g>
    </g>
  </g>
</svg>
