<svg xmlns="http://www.w3.org/2000/svg" width="17.22696" height="14" viewBox="0 0 17.22696 14">
  <title>アセット 3</title>
  <g id="レイヤー_2" data-name="レイヤー 2">
    <g id="Split詳細">
      <path d="M17.227,1.65728A7.06521,7.06521,0,0,1,15.197,2.2138,3.54457,3.54457,0,0,0,16.751.25845a7.07622,7.07622,0,0,1-2.24433.85769A3.53765,3.53765,0,0,0,8.484,4.33968,10.03384,10.03384,0,0,1,1.19927.64692a3.53822,3.53822,0,0,0,1.0938,4.71861A3.51994,3.51994,0,0,1,.69221,4.92346l-.0003.04443A3.53644,3.53644,0,0,0,3.527,8.43349,3.54319,3.54319,0,0,1,1.93092,8.494,3.538,3.538,0,0,0,5.2325,10.94857,7.09156,7.09156,0,0,1,.8431,12.46149,7.19442,7.19442,0,0,1,0,12.41214,10.00385,10.00385,0,0,0,5.41778,14,9.98726,9.98726,0,0,0,15.47362,3.94406q0-.22984-.01021-.45721A7.18293,7.18293,0,0,0,17.227,1.65728Z" fill="#fff"/>
    </g>
  </g>
</svg>
