<svg xmlns="http://www.w3.org/2000/svg" viewBox="0 0 29 27.74">
  <defs>
    <style>
      .cls-1 {
        isolation: isolate;
      }

      .cls-2 {
        opacity: 0.75;
        mix-blend-mode: overlay;
      }

      .cls-3 {
        fill: #fff;
      }
    </style>
  </defs>
  <title>icon-addmufo</title>
  <g class="cls-1">
    <g id="HOME">
      <g>
        <g class="cls-2">
          <path d="M2725.94,2524.26h-2.46v-2.46a1.26,1.26,0,1,0-2.52,0v2.46h-2.46a1.26,1.26,0,1,0,0,2.52H2721v2.46a1.26,1.26,0,1,0,2.52,0v-2.46h2.46A1.26,1.26,0,1,0,2725.94,2524.26Z" transform="translate(-2700.78 -2502.76)"/>
          <path d="M2728,2509.44l-1.73,1a13.43,13.43,0,1,0-23.23,13.48l-1.73,1a1.15,1.15,0,1,0,1.16,2l26.69-15.49A1.15,1.15,0,0,0,2728,2509.44ZM2708,2519.62a2.54,2.54,0,1,1,.92-3.47A2.54,2.54,0,0,1,2708,2519.62Zm6.1-3.52a2.54,2.54,0,1,1,.92-3.47A2.54,2.54,0,0,1,2714.08,2516.09Zm6.1-3.52a2.54,2.54,0,1,1,.92-3.47A2.54,2.54,0,0,1,2720.18,2512.57Z" transform="translate(-2700.78 -2502.76)"/>
        </g>
        <g>
          <path class="cls-3" d="M2725.94,2523.26h-2.46v-2.46a1.26,1.26,0,1,0-2.52,0v2.46h-2.46a1.26,1.26,0,1,0,0,2.52H2721v2.46a1.26,1.26,0,1,0,2.52,0v-2.46h2.46A1.26,1.26,0,1,0,2725.94,2523.26Z" transform="translate(-2700.78 -2502.76)"/>
          <path class="cls-3" d="M2728,2508.44l-1.73,1a13.43,13.43,0,1,0-23.23,13.48l-1.73,1a1.15,1.15,0,1,0,1.16,2l26.69-15.49A1.15,1.15,0,0,0,2728,2508.44ZM2708,2518.62a2.54,2.54,0,1,1,.92-3.47A2.54,2.54,0,0,1,2708,2518.62Zm6.1-3.52a2.54,2.54,0,1,1,.92-3.47A2.54,2.54,0,0,1,2714.08,2515.09Zm6.1-3.52a2.54,2.54,0,1,1,.92-3.47A2.54,2.54,0,0,1,2720.18,2511.57Z" transform="translate(-2700.78 -2502.76)"/>
        </g>
      </g>
    </g>
  </g>
</svg>
