<svg id="プロフィール" xmlns="http://www.w3.org/2000/svg" width="15.21" height="13" viewBox="0 0 15.21 13">
  <defs>
    <style>
      .cls-1 {
        fill: #50c1ff;
      }
    </style>
  </defs>
  <title>icon-alien-mouth</title>
  <path class="cls-1" d="M2933.49,1729c-4.41,0-7.61,2.89-7.61,6.87s2.84,6.13,7.61,6.13,7.61-2.29,7.61-6.13S2937.89,1729,2933.49,1729Zm4.6,10.14-2-1.13v2.13a8.65,8.65,0,0,1-1.52.29l-1.26-2.19-1.24,2.15a8.26,8.26,0,0,1-1.4-.31V1738l-1.86,1.08a4.09,4.09,0,0,1-1.35-3.25,5,5,0,0,1,1.49-3.66l1.72,1v-2.13a6.63,6.63,0,0,1,1.45-.42l1.33,2.31,1.33-2.31a6.68,6.68,0,0,1,1.31.36v2.18l1.81-1a5,5,0,0,1,1.54,3.71A4.09,4.09,0,0,1,2938.08,1739.14Z" transform="translate(-2925.88 -1729.01)"/>
</svg>
