<svg id="HOME_SETTING" xmlns="http://www.w3.org/2000/svg" viewBox="0 0 16.96 17.98">
  <defs>
    <style>
      .cls-1 {
        fill: #50c1ff;
      }
    </style>
  </defs>
  <title>icon-alien</title>
  <path class="cls-1" d="M2463.56,1470.92c-2.26-3.85-3.87-7-7.75-7s-5.6,3-7.82,6.9c-1.57,2.74-.31,5.23,4.49,5.23-0.35,3.17-1.17,3.5-1.87,3.5a1.38,1.38,0,0,1-1-.34,1.1,1.1,0,0,1-.26-0.73,0.49,0.49,0,0,0-1-.07,2.06,2.06,0,0,0,.51,1.46,2.29,2.29,0,0,0,1.75.66c1.88,0,2.59-1.87,2.86-4.4l1.16,0.06a14.81,14.81,0,0,1-.87,5,0.49,0.49,0,1,0,.89.42,15.69,15.69,0,0,0,1-5.39h0.77a15.78,15.78,0,0,0,.92,5.42,0.49,0.49,0,1,0,.89-0.41,15,15,0,0,1-.82-5l1.22-.07c0.24,2.56.93,4.49,2.82,4.5a2.29,2.29,0,0,0,1.76-.65,2.06,2.06,0,0,0,.53-1.46,0.49,0.49,0,0,0-1,.06,1.1,1.1,0,0,1-.27.73,1.38,1.38,0,0,1-1,.33c-0.71,0-1.54-.36-1.85-3.6C2463.76,1476,2465.4,1474.06,2463.56,1470.92Z" transform="translate(-2447.35 -1463.95)"/>
</svg>
