<?xml version="1.0" encoding="iso-8859-1"?>
<!-- Generator: Adobe Illustrator 18.1.0, SVG Export Plug-In . SVG Version: 6.00 Build 0)  -->
<svg version="1.1" xmlns="http://www.w3.org/2000/svg" xmlns:xlink="http://www.w3.org/1999/xlink" x="0px" y="0px"
	 viewBox="0 0 19 16" style="enable-background:new 0 0 19 16;" xml:space="preserve">
<g id="rule">
</g>
<g id="parts">
</g>
<g id="MuFo&#x8FFD;&#x52A0;">
</g>
<g id="&#x30C1;&#x30E5;&#x30FC;&#x30C8;&#x30EA;&#x30A2;&#x30EB;01">
</g>
<g id="MuFo&#x8A73;&#x7D30;">
</g>
<g id="&#x30D7;&#x30ED;&#x30D5;&#x30A3;&#x30FC;&#x30EB;">
</g>
<g id="ADD_SONG">
</g>
<g id="ADD_SONG_x5F_NO_RESULTS">
</g>
<g id="HOME_x5F_COLLECTION">
</g>
<g id="HOME_x5F_SETTING">
</g>
<g id="HOME_x5F_NOTICE">
</g>
<g id="HOME">
	<g>
		<path style="fill:#50C1FF;" d="M10.71,8L7.63,4.92v2.02H1.17C0.58,6.93,0.1,7.41,0.1,8v0c0,0.59,0.48,1.07,1.07,1.07h6.46v2.02
			L10.71,8z"/>
		<path style="fill:#50C1FF;" d="M11.86,0.06C8.55-0.33,5.6,1.31,4.05,3.88c-0.36,0.6,0.07,1.37,0.77,1.37h0
			c0.33,0,0.61-0.18,0.78-0.46c1.32-2.17,3.93-3.48,6.76-2.82c2.28,0.53,4.1,2.38,4.59,4.67c0.86,4.01-2.19,7.56-6.05,7.56
			c-2.24,0-4.21-1.2-5.29-2.99c-0.17-0.28-0.46-0.46-0.78-0.46h0c-0.71,0-1.13,0.78-0.76,1.39C5.46,14.45,7.99,16,10.9,16
			c4.72,0,8.49-4.09,7.95-8.92C18.44,3.45,15.49,0.48,11.86,0.06z"/>
	</g>
</g>
<g id="&#x7D20;&#x6750;&#x7528;">
</g>
<g id="TUTORIAL_1_">
</g>
</svg>
