<svg id="ADD_SONG" data-name="ADD SONG" xmlns="http://www.w3.org/2000/svg" viewBox="0 0 21.03 10">
  <defs>
    <style>
      .cls-1 {
        fill: #50c1ff;
      }
    </style>
  </defs>
  <title>icon-ufo</title>
  <path class="cls-1" d="M2332.59,1415h-1.27a8.52,8.52,0,1,0-17,0H2313a0.73,0.73,0,1,0,0,1.46l19.57,0A0.73,0.73,0,0,0,2332.59,1415Zm-14.25-.77a1.61,1.61,0,1,1,1.61-1.61A1.61,1.61,0,0,1,2318.34,1414.18Zm4.47,0a1.61,1.61,0,1,1,1.61-1.61A1.61,1.61,0,0,1,2322.81,1414.18Zm4.47,0a1.61,1.61,0,1,1,1.61-1.61A1.61,1.61,0,0,1,2327.28,1414.18Z" transform="translate(-2312.29 -1406.46)"/>
</svg>
