<svg id="プロフィール" xmlns="http://www.w3.org/2000/svg" width="12.07" height="16" viewBox="0 0 12.07 16">
  <defs>
    <style>
      .cls-1 {
        fill: #50c1ff;
      }
    </style>
  </defs>
  <title>icon-alien-body</title>
  <path class="cls-1" d="M2849.23,1740.16a3,3,0,0,0-1.69-2.6c0-.1,0-0.2,0-0.31a5.26,5.26,0,0,0-.31-1.83,3.94,3.94,0,0,0-2.3-2.36,4.71,4.71,0,0,0-1.37-.31,6.45,6.45,0,0,1,1.37-2.22,1.67,1.67,0,1,0-.51-0.55,7.57,7.57,0,0,0-1.38,2,7.48,7.48,0,0,0-1.3-2,1.67,1.67,0,1,0-.54.52,6.38,6.38,0,0,1,1.32,2.18,4.69,4.69,0,0,0-1.24.29,3.91,3.91,0,0,0-1.4.92,4,4,0,0,0-.89,1.43,5.3,5.3,0,0,0-.31,1.85c0,0.13,0,.26,0,0.38a3,3,0,0,0-1.55,2.52,2.78,2.78,0,0,0,0,.51,1,1,0,0,0,.15.34l0,0.05h0a0.52,0.52,0,0,0,.5.17,0.52,0.52,0,0,0,.12-1,2.44,2.44,0,0,1,1-1.06,4,4,0,0,0,.85,1.32l0,0,0,2-0.54.3a0.34,0.34,0,0,0-.17.3,0.32,0.32,0,0,0,.3.34H2841a0.49,0.49,0,0,0,.46-0.51v-1.49a4.89,4.89,0,0,0,1.67.28,5,5,0,0,0,1.83-.32h0V1743a0.49,0.49,0,0,0,.46.51h1.41a0.32,0.32,0,0,0,.3-0.34,0.34,0.34,0,0,0-.17-0.3l-0.54-.3,0.05-2.19a4.07,4.07,0,0,0,.74-1.24,2.47,2.47,0,0,1,1.17,1.12,0.52,0.52,0,1,0,.62.81h0l0-.05a1,1,0,0,0,.15-0.34A2.77,2.77,0,0,0,2849.23,1740.16Z" transform="translate(-2837.17 -1727.51)"/>
</svg>
