<svg id="HOME_COLLECTION" xmlns="http://www.w3.org/2000/svg" viewBox="0 0 31.18 17.98">
  <defs>
    <style>
      .cls-1 {
        fill: #50c1ff;
      }
    </style>
  </defs>
  <title>icon-collections</title>
  <g>
    <path class="cls-1" d="M2905.35,2138.74a11,11,0,0,0-3-.43,10.74,10.74,0,0,0-1.46.1,14,14,0,0,0-4.71,1.38v-13.4l0.77-.55a10.47,10.47,0,0,1,4.3-1.39,6,6,0,0,1,.81-0.05,10.87,10.87,0,0,1,3.26.62v0.19l1.31,0v-0.14a1.44,1.44,0,0,0-1-1.36,10.41,10.41,0,0,0-4.59-.6,8.16,8.16,0,0,1-9.79,0,10.44,10.44,0,0,0-4.59.6,1.44,1.44,0,0,0-1,1.36v13.52a1.37,1.37,0,0,0,1.75,1.33,9.31,9.31,0,0,1,3.81-.26,13,13,0,0,1,4.21,1.2,1.46,1.46,0,0,0,1.36,0,12.93,12.93,0,0,1,4.21-1.2,9.29,9.29,0,0,1,3.8.26,1.37,1.37,0,0,0,1.75-1.33v-2.05l-1.31-.24v2.39Z" transform="translate(-2885.77 -2123.1)"/>
    <path class="cls-1" d="M2916.39,2135.74l-1.17-.2a7.94,7.94,0,1,0-15.64-2.72l-1.17-.2a0.68,0.68,0,1,0-.23,1.34l18,3.13A0.68,0.68,0,0,0,2916.39,2135.74Zm-13-3a1.5,1.5,0,1,1,1.73-1.22A1.5,1.5,0,0,1,2903.43,2132.72Zm4.1,0.72a1.5,1.5,0,1,1,1.73-1.22A1.5,1.5,0,0,1,2907.53,2133.45Zm4.1,0.72a1.5,1.5,0,1,1,1.73-1.22A1.5,1.5,0,0,1,2911.64,2134.17Z" transform="translate(-2885.77 -2123.1)"/>
  </g>
</svg>
