<svg id="MuFo詳細" xmlns="http://www.w3.org/2000/svg" width="66" height="24" viewBox="0 0 66 24">
  <defs>
    <style>
      .cls-1 {
        fill: #a6a6a6;
      }

      .cls-2 {
        fill: #fff;
      }
    </style>
  </defs>
  <title>app_2017-09-19</title>
  <g>
    <path class="cls-1" d="M2998.28,1956.27h-58.88a5.56,5.56,0,0,0-.84.08,2.74,2.74,0,0,0-1.47.75,2.74,2.74,0,0,0-.75,1.47,5.52,5.52,0,0,0-.08.84c0,0.13,0,.25,0,0.38s0,0.3,0,.46v16.05c0,0.15,0,.3,0,0.45s0,0.26,0,.38a5.41,5.41,0,0,0,.08.83,2.77,2.77,0,0,0,.26.8,2.69,2.69,0,0,0,1.17,1.17,3,3,0,0,0,.79.26,5.55,5.55,0,0,0,.84.07h59.72a5.56,5.56,0,0,0,.84-0.07,3,3,0,0,0,.79-0.26,2.57,2.57,0,0,0,.68-0.49,2.67,2.67,0,0,0,.49-0.67,2.75,2.75,0,0,0,.26-0.8,5.44,5.44,0,0,0,.07-0.83c0-.13,0-0.26,0-0.38s0-.3,0-0.45v-16.05c0-.15,0-0.3,0-0.46s0-.25,0-0.38a5.56,5.56,0,0,0-.07-0.84,2.73,2.73,0,0,0-.75-1.47,2.64,2.64,0,0,0-.68-0.49,2.83,2.83,0,0,0-.79-0.26,5.57,5.57,0,0,0-.84-0.08h-0.84Z" transform="translate(-2936.25 -1956.27)"/>
    <path d="M2998.28,1956.86h0.82a4.62,4.62,0,0,1,.75.06,2.28,2.28,0,0,1,.63.21,2.16,2.16,0,0,1,.53.38,2.09,2.09,0,0,1,.38.53,2.23,2.23,0,0,1,.21.63,5,5,0,0,1,.06.74c0,0.12,0,.25,0,0.37s0,0.3,0,.45v16.05c0,0.15,0,.3,0,0.45s0,0.25,0,.37a5,5,0,0,1-.06.75,2.34,2.34,0,0,1-.21.63,2.19,2.19,0,0,1-.38.52,2.2,2.2,0,0,1-1.15.59,5.29,5.29,0,0,1-.75.07h-59.7a5.26,5.26,0,0,1-.74-0.07,2.07,2.07,0,0,1-.63-0.21,2,2,0,0,1-.52-0.38,2.23,2.23,0,0,1-.38-0.52,2.36,2.36,0,0,1-.2-0.63,4.56,4.56,0,0,1-.06-0.75c0-.12,0-0.25,0-0.37v-17c0-.12,0-0.25,0-0.37a4.55,4.55,0,0,1,.07-0.74,2.25,2.25,0,0,1,.2-0.63,2.11,2.11,0,0,1,.91-0.91,2.28,2.28,0,0,1,.63-0.2,4.61,4.61,0,0,1,.75-0.06h58.87" transform="translate(-2936.25 -1956.27)"/>
    <g>
      <path class="cls-2" d="M2954.33,1968.14a3.48,3.48,0,0,1,1.66-2.92,3.56,3.56,0,0,0-2.81-1.52c-1.18-.12-2.32.71-2.93,0.71s-1.54-.69-2.54-0.67a3.74,3.74,0,0,0-3.14,1.92c-1.36,2.35-.35,5.81,1,7.71,0.65,0.93,1.41,2,2.41,1.94s1.34-.62,2.52-0.62,1.51,0.62,2.52.6,1.71-.94,2.33-1.88a7.71,7.71,0,0,0,1.07-2.17A3.36,3.36,0,0,1,2954.33,1968.14Z" transform="translate(-2936.25 -1956.27)"/>
      <path class="cls-2" d="M2952.41,1962.46a3.42,3.42,0,0,0,.78-2.45,3.48,3.48,0,0,0-2.25,1.17,3.26,3.26,0,0,0-.8,2.36A2.88,2.88,0,0,0,2952.41,1962.46Z" transform="translate(-2936.25 -1956.27)"/>
    </g>
    <g>
      <path class="cls-2" d="M2965.94,1964.13a3.25,3.25,0,0,1-1.16.21,2,2,0,0,1-1.41-.49,2.1,2.1,0,0,1,0-2.82,2.05,2.05,0,0,1,1.48-.54,2.19,2.19,0,0,1,.95.17l-0.13.49a2,2,0,0,0-.82-0.16,1.38,1.38,0,0,0-1,.36,1.41,1.41,0,0,0-.39,1.05,1.47,1.47,0,0,0,.37,1.06,1.27,1.27,0,0,0,1,.37,1.39,1.39,0,0,0,.55-0.08v-1h-0.69v-0.48h1.27v1.87Z" transform="translate(-2936.25 -1956.27)"/>
      <path class="cls-2" d="M2969.09,1962.81a1.45,1.45,0,0,1,0,.27h-1.81a0.79,0.79,0,0,0,.26.62,0.9,0.9,0,0,0,.59.19,2,2,0,0,0,.73-0.13l0.1,0.42a2.27,2.27,0,0,1-.91.17,1.32,1.32,0,0,1-1-.37,1.37,1.37,0,0,1-.36-1,1.56,1.56,0,0,1,.34-1,1.16,1.16,0,0,1,1-.44,1,1,0,0,1,.89.44A1.47,1.47,0,0,1,2969.09,1962.81Zm-0.58-.16a0.82,0.82,0,0,0-.12-0.46,0.53,0.53,0,0,0-.48-0.25,0.57,0.57,0,0,0-.48.25,0.9,0.9,0,0,0-.18.47h1.26Z" transform="translate(-2936.25 -1956.27)"/>
      <path class="cls-2" d="M2971.25,1962h-0.67v1.32q0,0.5.35,0.5a1.09,1.09,0,0,0,.27,0l0,0.46a1.36,1.36,0,0,1-.47.07,0.72,0.72,0,0,1-.56-0.22,1.07,1.07,0,0,1-.2-0.73V1962h-0.4v-0.45h0.4v-0.5l0.59-.18v0.68h0.67V1962Z" transform="translate(-2936.25 -1956.27)"/>
      <path class="cls-2" d="M2974.21,1960.77a0.35,0.35,0,0,1-.11.26,0.38,0.38,0,0,1-.27.1,0.35,0.35,0,0,1-.25-0.1,0.35,0.35,0,0,1-.1-0.26,0.34,0.34,0,0,1,.11-0.26,0.39,0.39,0,0,1,.53,0A0.34,0.34,0,0,1,2974.21,1960.77Zm-0.07,3.53h-0.6v-2.72h0.6v2.72Z" transform="translate(-2936.25 -1956.27)"/>
      <path class="cls-2" d="M2976.5,1962h-0.67v1.32q0,0.5.35,0.5a1.09,1.09,0,0,0,.27,0l0,0.46a1.35,1.35,0,0,1-.47.07,0.72,0.72,0,0,1-.56-0.22,1.07,1.07,0,0,1-.2-0.73V1962h-0.4v-0.45h0.4v-0.5l0.59-.18v0.68h0.67V1962Z" transform="translate(-2936.25 -1956.27)"/>
      <path class="cls-2" d="M2981.27,1962.91a1.49,1.49,0,0,1-.36,1,1.28,1.28,0,0,1-1,.41,1.22,1.22,0,0,1-1-.4,1.44,1.44,0,0,1-.36-1,1.48,1.48,0,0,1,.37-1,1.27,1.27,0,0,1,1-.4,1.24,1.24,0,0,1,1,.4A1.43,1.43,0,0,1,2981.27,1962.91Zm-0.63,0a1.23,1.23,0,0,0-.16-0.64,0.6,0.6,0,0,0-.54-0.33,0.61,0.61,0,0,0-.55.33,1.25,1.25,0,0,0-.16.66,1.23,1.23,0,0,0,.16.65,0.61,0.61,0,0,0,.55.33,0.6,0.6,0,0,0,.54-0.33A1.22,1.22,0,0,0,2980.65,1962.93Z" transform="translate(-2936.25 -1956.27)"/>
      <path class="cls-2" d="M2984.43,1964.3h-0.6v-1.56q0-.72-0.55-0.72a0.54,0.54,0,0,0-.44.2,0.7,0.7,0,0,0-.17.47v1.61h-0.6v-1.94q0-.36,0-0.78h0.53l0,0.42h0a0.87,0.87,0,0,1,.31-0.33,1,1,0,0,1,.55-0.15,0.87,0.87,0,0,1,.63.25,1.2,1.2,0,0,1,.31.9v1.63Z" transform="translate(-2936.25 -1956.27)"/>
    </g>
    <g>
      <path class="cls-2" d="M2964.48,1967.7a0.73,0.73,0,0,1-.22.56,0.81,0.81,0,0,1-.58.21,0.73,0.73,0,0,1-.54-0.22,0.75,0.75,0,0,1-.22-0.55,0.72,0.72,0,0,1,.23-0.54,0.83,0.83,0,0,1,1.11,0A0.72,0.72,0,0,1,2964.48,1967.7Zm-0.14,7.48h-1.28v-5.76h1.28v5.76Z" transform="translate(-2936.25 -1956.27)"/>
      <path class="cls-2" d="M2971.22,1968.27h-2.29v6.91h-1.28v-6.91h-2.28v-1.08h5.84v1.08Z" transform="translate(-2936.25 -1956.27)"/>
      <path class="cls-2" d="M2976.55,1975.17h-1.13l-0.07-.88h0a2,2,0,0,1-1.82,1,1.8,1.8,0,0,1-1.36-.53,2.8,2.8,0,0,1-.6-2v-3.39h1.28v3.18q0,1.66,1.14,1.66a1.19,1.19,0,0,0,1.19-.83,1.34,1.34,0,0,0,.08-0.49v-3.52h1.28v4.1Q2976.51,1974.33,2976.55,1975.17Z" transform="translate(-2936.25 -1956.27)"/>
      <path class="cls-2" d="M2983.29,1975.17H2982v-3.3q0-1.53-1.16-1.53a1.16,1.16,0,0,0-.92.42,1.48,1.48,0,0,0-.36,1v3.42h-1.28v-4.11q0-.76,0-1.65h1.13l0.06,0.9h0a1.84,1.84,0,0,1,.66-0.69,2.15,2.15,0,0,1,1.16-.32,1.84,1.84,0,0,1,1.34.52,2.53,2.53,0,0,1,.66,1.91v3.45Z" transform="translate(-2936.25 -1956.27)"/>
      <path class="cls-2" d="M2989.82,1972a3,3,0,0,1,0,.58h-3.84a1.67,1.67,0,0,0,.56,1.3,1.9,1.9,0,0,0,1.26.4,4.23,4.23,0,0,0,1.55-.27l0.2,0.89a4.83,4.83,0,0,1-1.93.36,2.79,2.79,0,0,1-2.1-.79,2.91,2.91,0,0,1-.76-2.12,3.3,3.3,0,0,1,.71-2.17,2.45,2.45,0,0,1,2-.92,2.14,2.14,0,0,1,1.88.92A3.1,3.1,0,0,1,2989.82,1972Zm-1.22-.33a1.74,1.74,0,0,0-.25-1,1.12,1.12,0,0,0-1-.53,1.21,1.21,0,0,0-1,.52,1.91,1.91,0,0,0-.38,1h2.67Z" transform="translate(-2936.25 -1956.27)"/>
      <path class="cls-2" d="M2994.76,1973.52a1.58,1.58,0,0,1-.59,1.29,2.51,2.51,0,0,1-1.64.48,3.33,3.33,0,0,1-1.67-.39l0.27-.95a2.67,2.67,0,0,0,1.41.4q1,0,1-.72a0.7,0.7,0,0,0-.21-0.53,2.23,2.23,0,0,0-.76-0.41A1.88,1.88,0,0,1,2991,1971a1.59,1.59,0,0,1,.57-1.24,2.2,2.2,0,0,1,1.5-.5,2.88,2.88,0,0,1,1.46.35l-0.27.92a2.26,2.26,0,0,0-1.17-.33,0.94,0.94,0,0,0-.63.19,0.6,0.6,0,0,0-.23.48,0.59,0.59,0,0,0,.24.49,2.67,2.67,0,0,0,.78.39A1.89,1.89,0,0,1,2994.76,1973.52Z" transform="translate(-2936.25 -1956.27)"/>
    </g>
  </g>
</svg>
