<svg xmlns="http://www.w3.org/2000/svg" viewBox="0 0 310 310" style="height: 310px; width: 310px;">
  <defs>
    <style>
      .anim-rotate {
        animation: rotation 5s infinite linear;
        transform-origin: center center;
      }

      @keyframes rotation {
        0% {
          transform: rotateY(0deg);
        }
        100% {
          transform: rotateY(359deg);
        }
      }

      .anim-fade1 {
        animation: fade1 5s infinite linear;
      }

      @keyframes fade1 {
        0% {
          opacity: 1;
        }
        15% {
          opacity: 0;
        }
        35% {
          opacity: 0;
        }
        50% {
          opacity: 1;
        }
        100% {
          opacity: 1;
        }
      }

      .anim-fade2 {
        animation: fade2 5s infinite linear;
      }

      @keyframes fade2 {
        0% {
          opacity: 1;
        }
        50% {
          opacity: 1;
        }
        65% {
          opacity: 0;
        }
        85% {
          opacity: 0;
        }
        100% {
          opacity: 1;
        }
      }
    </style>
  </defs>
  <g class="anim-rotate">
    <g class="anim-fade1">
      <path style="fill:#FFFFFF;" d="M275.79,69.91l1.87,3l-5.17,9.16l-2.26,3.46l0.06,0.1c1.43-1.11,3.24-2.55,4.91-3.59l5.87-3.66
        l1.74,2.78l-14.71,9.19l-1.86-2.98l5.22-9.17l2.23-3.46l-0.06-0.1c-1.5,1.13-3.22,2.51-4.9,3.56l-5.91,3.68l-1.74-2.78
        L275.79,69.91z"/>
      <path style="fill:#FFFFFF;" d="M278.17,90.57c5.17-2.28,9.45-0.7,11.3,3.5c1.85,4.21,0.1,8.43-5.05,10.7s-9.58,0.76-11.43-3.45
        C271.14,97.12,273.02,92.84,278.17,90.57z M282.99,101.53c3.41-1.5,4.79-3.9,3.75-6.26c-1.04-2.36-3.74-2.97-7.15-1.46
        c-3.39,1.49-4.9,3.95-3.86,6.31S279.6,103.03,282.99,101.53z"/>
      <path style="fill:#FFFFFF;" d="M294.26,106.42l0.89,3.42l-7.84,3.47c-1.7,0.71-3.42,1.45-5.15,2.16l0.02,0.09
        c1.88-0.13,3.79-0.23,5.63-0.33l8.69-0.18l0.74,2.86l-7.68,4.08c-1.63,0.81-3.36,1.62-5.07,2.46l0.03,0.11
        c1.88-0.22,3.74-0.44,5.55-0.64l8.53-0.82l0.83,3.2l-17.59,1.26l-1.08-4.17l7.81-4.04c1.24-0.61,2.47-1.2,3.69-1.73l-0.02-0.09
        c-1.33,0.1-2.68,0.21-4.07,0.28l-8.78,0.32l-1.07-4.1L294.26,106.42z"/>
      <path style="fill:#FFFFFF;" d="M300.86,137.84l0.38,5.68c0.26,3.84-0.88,6.87-4.97,7.15c-3.95,0.27-5.93-2.58-6.18-6.3
        l-0.16-2.32l-6.15,0.41l-0.23-3.46L300.86,137.84z M292.82,143.95c0.16,2.38,1.24,3.46,3.23,3.33c2.01-0.14,2.6-1.44,2.44-3.83
        l-0.13-1.96l-5.69,0.38L292.82,143.95z"/>
      <path style="fill:#FFFFFF;" d="M301.64,155.78l-0.16,3.47l-14.43-0.66l-0.32,7.03l-2.9-0.13l0.48-10.49L301.64,155.78z"/>
      <path style="fill:#FFFFFF;" d="M286.35,178.74l0.94-5.55l-4.19-1.94l0.59-3.47l16.17,8.36l-0.68,4.02l-18.02,2.61l0.6-3.58
        L286.35,178.74z M289.13,178.45l1.96-0.19c1.87-0.23,3.91-0.36,5.85-0.56l0.01-0.09c-1.8-0.76-3.65-1.59-5.34-2.4l-1.79-0.82
        L289.13,178.45z"/>
      <path style="fill:#FFFFFF;" d="M285.99,188.85l11.99-2.04l-1,3.54l-4.53,0.53c-1.37,0.13-2.67,0.25-4.11,0.41l-0.03,0.09
        c1.14,0.88,2.17,1.71,3.28,2.53l3.59,2.81l-0.97,3.47l-9.17-8l-6.12-1.71l0.94-3.34L285.99,188.85z"/>
      <path style="fill:#FFFFFF;" d="M292.71,204.04l-1.22,3.24l-16.22-6.11l1.22-3.24L292.71,204.04z"/>
      <path style="fill:#FFFFFF;" d="M289.17,213.23l-1.58,3.17l-10.52,0.4l-4.13-0.12l-0.05,0.11c1.7,0.64,3.87,1.43,5.64,2.3
        l6.19,3.08l-1.46,2.94l-15.54-7.73l1.57-3.15l10.55-0.36l4.12,0.09l0.05-0.11c-1.75-0.69-3.82-1.43-5.61-2.32l-6.23-3.1
        l1.46-2.94L289.17,213.23z"/>
      <path style="fill:#FFFFFF;" d="M272.77,225.82c4.72,3.22,5.4,8.16,2.8,11.98c-1.41,2.07-3.28,2.89-4.86,3.18l-0.78-2.77
        c1.15-0.24,2.23-0.69,3.11-1.99c1.62-2.38,0.9-5.31-2.17-7.41c-3.12-2.13-5.97-1.97-7.88,0.83c-0.48,0.7-0.76,1.53-0.68,2.17
        l2.82,1.93l1.73-2.54l2.34,1.6l-3.47,5.09l-6.46-4.41c-0.29-1.61,0.09-3.82,1.45-5.82C263.38,223.76,267.99,222.56,272.77,225.82
        z"/>
    </g>

    <g class="anim-fade2">
      <path style="fill:#FFFFFF;" d="M33.99,239.82l-1.94-2.96l4.96-9.27l2.19-3.5l-0.06-0.1c-1.41,1.14-3.19,2.62-4.83,3.7l-5.78,3.79
        l-1.8-2.74l14.5-9.5l1.92,2.94l-5.01,9.28l-2.15,3.51l0.06,0.1c1.48-1.16,3.16-2.57,4.82-3.66l5.82-3.81l1.8,2.74L33.99,239.82z"
        />
      <path style="fill:#FFFFFF;" d="M31.14,219.2c-5.12,2.39-9.43,0.91-11.37-3.26c-1.94-4.16-0.28-8.43,4.81-10.81
        c5.1-2.38,9.56-0.97,11.5,3.2C38.03,212.49,36.24,216.82,31.14,219.2z M26.08,208.34c-3.38,1.58-4.7,4.01-3.61,6.34
        c1.09,2.34,3.8,2.88,7.18,1.31c3.36-1.57,4.81-4.05,3.72-6.39S29.44,206.78,26.08,208.34z"/>
      <path style="fill:#FFFFFF;" d="M14.71,203.75l-0.97-3.41l7.77-3.64c1.69-0.75,3.39-1.52,5.11-2.28l-0.03-0.09
        c-1.88,0.17-3.79,0.32-5.63,0.45l-8.7,0.37l-0.81-2.84l7.59-4.25c1.61-0.85,3.32-1.7,5.03-2.57l-0.03-0.11
        c-1.88,0.26-3.73,0.52-5.54,0.77l-8.52,1l-0.9-3.18l17.58-1.65l1.18,4.15l-7.73,4.22c-1.23,0.64-2.45,1.25-3.65,1.82l0.03,0.09
        c1.33-0.13,2.68-0.27,4.06-0.37l8.78-0.51l1.16,4.09L14.71,203.75z"/>
      <path style="fill:#FFFFFF;" d="M7.42,172.4l-0.5-5.67c-0.34-3.83,0.73-6.89,4.82-7.25c3.95-0.35,5.99,2.46,6.31,6.17l0.21,2.31
        l6.14-0.55l0.31,3.46L7.42,172.4z M15.34,166.12c-0.21-2.38-1.32-3.44-3.3-3.26c-2.01,0.18-2.57,1.5-2.36,3.88l0.17,1.96
        l5.67-0.5L15.34,166.12z"/>
      <path style="fill:#FFFFFF;" d="M6.28,154.55l0.08-3.47l14.43,0.35l0.17-7.03l2.9,0.07l-0.26,10.49L6.28,154.55z"/>
      <path style="fill:#FFFFFF;" d="M21.03,131.26l-0.81,5.57l4.23,1.84l-0.5,3.48l-16.38-7.99l0.59-4.04l17.97-3.04l-0.52,3.6
        L21.03,131.26z M18.25,131.62l-1.95,0.24c-1.87,0.27-3.9,0.45-5.84,0.7l-0.01,0.09c1.82,0.71,3.69,1.51,5.41,2.28l1.81,0.78
        L18.25,131.62z"/>
      <path style="fill:#FFFFFF;" d="M21.19,121.11l-11.94,2.31l0.91-3.57l4.52-0.63c1.37-0.16,2.67-0.31,4.1-0.5l0.02-0.09
        c-1.16-0.85-2.21-1.66-3.34-2.45l-3.66-2.73l0.9-3.5l9.35,7.8l6.15,1.58l-0.86,3.36L21.19,121.11z"/>
      <path style="fill:#FFFFFF;" d="M14.14,106.08l1.15-3.27l16.36,5.77l-1.15,3.27L14.14,106.08z"/>
      <path style="fill:#FFFFFF;" d="M17.47,96.85l1.51-3.2l10.5-0.63l4.13,0.03l0.05-0.11c-1.71-0.6-3.9-1.34-5.68-2.18l-6.26-2.94
        l1.4-2.97l15.69,7.38l-1.5,3.18L26.78,96l-4.12,0l-0.05,0.11c1.77,0.65,3.85,1.34,5.65,2.19l6.3,2.96l-1.4,2.97L17.47,96.85z"/>
      <path style="fill:#FFFFFF;" d="M33.59,83.88c-4.79-3.12-5.58-8.04-3.06-11.91c1.36-2.1,3.21-2.97,4.79-3.28l0.84,2.75
        c-1.15,0.26-2.21,0.74-3.07,2.06c-1.57,2.41-0.78,5.33,2.34,7.36c3.16,2.06,6.01,1.84,7.86-1c0.46-0.71,0.72-1.54,0.64-2.18
        l-2.87-1.86l-1.67,2.57l-2.38-1.54l3.36-5.16l6.56,4.26c0.32,1.61,0,3.83-1.32,5.85C43.03,85.74,38.44,87.03,33.59,83.88z"/>
    </g>
  </g>
</svg>
