<svg xmlns="http://www.w3.org/2000/svg" width="48.45" height="48.45" viewBox="0 0 48.45 48.45">
  <defs>
    <style>
      .cls-1 {
        fill: #00fce9;
      }

      .cls-2 {
        fill: none;
        stroke: #00fce9;
        stroke-miterlimit: 10;
        stroke-width: 3px;
      }
    </style>
  </defs>
  <g>
    <path class="cls-1" d="M3012.61,1841.12a18,18,0,0,1,18,18v0.7a18,18,0,0,1-18,18h0a18,18,0,0,1-18-18v-0.7a18,18,0,0,1,18-18h0m0-2.4a20.42,20.42,0,0,0-20.4,20.4v0.7a20.4,20.4,0,0,0,40.8,0v-0.7a20.42,20.42,0,0,0-20.4-20.4h0Z" transform="translate(-2988.39 -1835.25)"/>
    <line class="cls-2" x1="24.22" y1="5.88" x2="24.22"/>
    <line class="cls-2" x1="24.22" y1="48.45" x2="24.22" y2="42.57"/>
    <line class="cls-2" x1="42.57" y1="24.22" x2="48.45" y2="24.22"/>
    <line class="cls-2" y1="24.22" x2="5.88" y2="24.22"/>
  </g>
</svg>
