<svg xmlns="http://www.w3.org/2000/svg" xmlns:xlink="http://www.w3.org/1999/xlink" width="54" height="54" viewBox="0 0 54 54">
  <defs>
    <style>
      .cls-1 {
        isolation: isolate;
      }

      .cls-2 {
        fill: url(#名称未設定グラデーション_266);
      }

      .cls-3, .cls-7, .cls-8 {
        mix-blend-mode: soft-light;
      }

      .cls-4, .cls-7 {
        fill: #fff;
      }

      .cls-5 {
        opacity: 0.4;
        mix-blend-mode: multiply;
        fill: url(#名称未設定グラデーション_258);
      }

      .cls-6 {
        opacity: 0.75;
        mix-blend-mode: overlay;
      }

      .cls-8 {
        fill: none;
        stroke: #fff;
        stroke-linecap: round;
        stroke-miterlimit: 10;
        stroke-width: 2px;
      }
    </style>
    <linearGradient id="名称未設定グラデーション_266" data-name="名称未設定グラデーション 266" x1="27" x2="27" y2="54" gradientUnits="userSpaceOnUse">
      <stop offset="0" stop-color="#24d7ff"/>
      <stop offset="0.06" stop-color="#24d7ff"/>
      <stop offset="1" stop-color="#24d7ff"/>
    </linearGradient>
    <linearGradient id="名称未設定グラデーション_258" data-name="名称未設定グラデーション 258" x1="27" y1="7.05" x2="27" y2="46.95" gradientUnits="userSpaceOnUse">
      <stop offset="0" stop-color="#24d7ff"/>
      <stop offset="1" stop-color="#24d7ff"/>
    </linearGradient>
  </defs>
  <title>btn-create-mufo</title>
  <g class="cls-1">
    <g id="HOME">
      <g>
        <circle class="cls-2" cx="27" cy="27" r="27"/>
        <g class="cls-3">
          <path class="cls-4" d="M4100,1963.33a25,25,0,1,1-25,25,25,25,0,0,1,25-25m0-2a27,27,0,1,0,27,27,27,27,0,0,0-27-27h0Z" transform="translate(-4072.98 -1961.33)"/>
        </g>
        <circle class="cls-5" cx="27" cy="27" r="19.95"/>
        <g>
          <g class="cls-6">
            <path d="M4111.08,1996.14h-2.46v-2.46a1.26,1.26,0,1,0-2.52,0v2.46h-2.46a1.26,1.26,0,1,0,0,2.52h2.46v2.46a1.26,1.26,0,0,0,2.52,0v-2.46h2.46A1.26,1.26,0,0,0,4111.08,1996.14Z" transform="translate(-4072.98 -1961.33)"/>
            <path d="M4113.18,1981.32l-1.73,1a13.43,13.43,0,1,0-23.23,13.48l-1.73,1a1.15,1.15,0,1,0,1.16,2l26.69-15.49A1.15,1.15,0,0,0,4113.18,1981.32Zm-20.07,10.18a2.54,2.54,0,1,1,.92-3.47A2.54,2.54,0,0,1,4093.11,1991.5Zm6.1-3.52a2.54,2.54,0,1,1,.92-3.47A2.54,2.54,0,0,1,4099.21,1988Zm6.1-3.52a2.54,2.54,0,1,1,.92-3.47A2.54,2.54,0,0,1,4105.32,1984.45Z" transform="translate(-4072.98 -1961.33)"/>
          </g>
          <g>
            <path class="cls-4" d="M4111.08,1995.14h-2.46v-2.46a1.26,1.26,0,1,0-2.52,0v2.46h-2.46a1.26,1.26,0,1,0,0,2.52h2.46v2.46a1.26,1.26,0,0,0,2.52,0v-2.46h2.46A1.26,1.26,0,0,0,4111.08,1995.14Z" transform="translate(-4072.98 -1961.33)"/>
            <path class="cls-4" d="M4113.18,1980.32l-1.73,1a13.43,13.43,0,1,0-23.23,13.48l-1.73,1a1.15,1.15,0,1,0,1.16,2l26.69-15.49A1.15,1.15,0,0,0,4113.18,1980.32Zm-20.07,10.18a2.54,2.54,0,1,1,.92-3.47A2.54,2.54,0,0,1,4093.11,1990.5Zm6.1-3.52a2.54,2.54,0,1,1,.92-3.47A2.54,2.54,0,0,1,4099.21,1987Zm6.1-3.52a2.54,2.54,0,1,1,.92-3.47A2.54,2.54,0,0,1,4105.32,1983.45Z" transform="translate(-4072.98 -1961.33)"/>
          </g>
        </g>
        <circle class="cls-7" cx="14.41" cy="8.54" r="1.14"/>
        <path class="cls-8" d="M4085.06,1971.73a24.14,24.14,0,0,0-5.52,7.18" transform="translate(-4072.98 -1961.33)"/>
      </g>
    </g>
  </g>
</svg>
