<svg xmlns="http://www.w3.org/2000/svg" width="30" height="30" viewBox="0 0 30 30">
  <defs>
    <style>
      .cls-1 {
        isolation: isolate;
      }

      .cls-2, .cls-3 {
        fill: #7912ff;
      }

      .cls-3 {
        opacity: 0.3;
        mix-blend-mode: multiply;
      }

      .cls-4, .cls-6 {
        fill: #fff;
      }

      .cls-4, .cls-5 {
        mix-blend-mode: soft-light;
      }

      .cls-7 {
        opacity: 0.75;
        mix-blend-mode: overlay;
      }
    </style>
  </defs>
  <title>btn-tw</title>
  <g class="cls-1">
    <g id="MuFo詳細">
      <g>
        <rect class="cls-2" width="30" height="30" rx="15" ry="15"/>
        <circle class="cls-3" cx="15" cy="15.12" r="10.2"/>
        <circle class="cls-4" cx="8.28" cy="5.35" r="0.59"/>
        <path class="cls-4" d="M2497.18,1823.28a0.52,0.52,0,0,1-.47-0.76,13.07,13.07,0,0,1,3-3.93,0.52,0.52,0,0,1,.66.81,12.14,12.14,0,0,0-2.74,3.58A0.52,0.52,0,0,1,2497.18,1823.28Z" transform="translate(-2493 -1812.68)"/>
        <g class="cls-5">
          <path class="cls-6" d="M2508,1814.08a13.6,13.6,0,1,1-13.6,13.6,13.62,13.62,0,0,1,13.6-13.6m0-1.4h0a15,15,0,0,0,0,30h0a15,15,0,0,0,0-30h0Z" transform="translate(-2493 -1812.68)"/>
        </g>
        <g>
          <g class="cls-7">
            <path d="M2514.5,1824.33a5.36,5.36,0,0,1-1.53.42,2.66,2.66,0,0,0,1.17-1.47,5.36,5.36,0,0,1-1.69.64,2.67,2.67,0,0,0-4.61,1.81,2.64,2.64,0,0,0,.07.6,7.59,7.59,0,0,1-5.5-2.77,2.64,2.64,0,0,0,.83,3.54,2.67,2.67,0,0,1-1.21-.33v0a2.66,2.66,0,0,0,2.14,2.6,2.69,2.69,0,0,1-1.2,0,2.67,2.67,0,0,0,2.49,1.84,5.37,5.37,0,0,1-3.31,1.13,5.47,5.47,0,0,1-.64,0,7.59,7.59,0,0,0,4.09,1.19,7.51,7.51,0,0,0,7.59-7.54q0-.17,0-0.34A5.4,5.4,0,0,0,2514.5,1824.33Z" transform="translate(-2493 -1812.68)"/>
          </g>
          <path class="cls-6" d="M2514.5,1823.67a5.36,5.36,0,0,1-1.53.42,2.66,2.66,0,0,0,1.17-1.47,5.36,5.36,0,0,1-1.69.64,2.67,2.67,0,0,0-4.61,1.81,2.64,2.64,0,0,0,.07.6,7.59,7.59,0,0,1-5.5-2.77,2.64,2.64,0,0,0,.83,3.54,2.67,2.67,0,0,1-1.21-.33v0a2.66,2.66,0,0,0,2.14,2.6,2.69,2.69,0,0,1-1.2,0,2.67,2.67,0,0,0,2.49,1.84,5.37,5.37,0,0,1-3.31,1.13,5.47,5.47,0,0,1-.64,0,7.59,7.59,0,0,0,4.09,1.19,7.51,7.51,0,0,0,7.59-7.54q0-.17,0-0.34A5.4,5.4,0,0,0,2514.5,1823.67Z" transform="translate(-2493 -1812.68)"/>
        </g>
      </g>
    </g>
  </g>
</svg>
