<svg id="MuFo追加" xmlns="http://www.w3.org/2000/svg" xmlns:xlink="http://www.w3.org/1999/xlink" viewBox="0 0 351.17 189.51">
  <defs>
    <style>
      .cls-1, .cls-10, .cls-11, .cls-15, .cls-2, .cls-25, .cls-26, .cls-8 {
        fill: none;
      }

      .cls-2 {
        stroke: #50c1ff;
        stroke-width: 1.01px;
      }

      .cls-10, .cls-11, .cls-19, .cls-2, .cls-20, .cls-21, .cls-25, .cls-7, .cls-8 {
        stroke-miterlimit: 10;
      }

      .cls-3 {
        fill: #d3ccea;
      }

      .cls-4 {
        fill: #8484d3;
      }

      .cls-5 {
        fill: #fc6a56;
      }

      .cls-6 {
        fill: #aba9e0;
      }

      .cls-7 {
        fill: #5a5589;
        stroke: #8785ba;
      }

      .cls-8 {
        stroke: #5a5589;
        stroke-width: 3px;
      }

      .cls-9 {
        fill: #07ddbe;
      }

      .cls-10, .cls-11 {
        stroke: #7c66b2;
      }

      .cls-10, .cls-11, .cls-20, .cls-21, .cls-24, .cls-26 {
        stroke-width: 2px;
      }

      .cls-10, .cls-14 {
        opacity: 0.2;
      }

      .cls-12 {
        fill: #6e89f9;
      }

      .cls-13 {
        fill: #376baa;
      }

      .cls-14 {
        fill: url(#MuFo_02);
      }

      .cls-15 {
        stroke: #52e8e1;
      }

      .cls-15, .cls-24, .cls-26 {
        stroke-linecap: round;
        stroke-linejoin: round;
      }

      .cls-15, .cls-22, .cls-27 {
        opacity: 0.4;
      }

      .cls-16, .cls-19 {
        fill: #011944;
      }

      .cls-17, .cls-24 {
        fill: #fff;
      }

      .cls-18 {
        fill: #e678ab;
      }

      .cls-19, .cls-25 {
        stroke: #011944;
      }

      .cls-19 {
        stroke-width: 3.3px;
      }

      .cls-20, .cls-33 {
        fill: #62738c;
      }

      .cls-20 {
        stroke: #365172;
      }

      .cls-21 {
        fill: #52e8e1;
        stroke: #0fd3c4;
      }

      .cls-23, .cls-27 {
        fill: #c40062;
      }

      .cls-24, .cls-26 {
        stroke: #c40062;
      }

      .cls-25 {
        stroke-width: 4px;
      }

      .cls-28 {
        opacity: 0.3;
      }

      .cls-29 {
        fill: #a3a3e2;
      }

      .cls-30 {
        fill: #b1b1e5;
      }

      .cls-31 {
        fill: #8787d8;
      }

      .cls-32 {
        fill: #c10664;
      }

      .cls-34 {
        fill: #7676d6;
      }
    </style>
    <pattern id="MuFo_02" data-name="MuFo 02" width="82" height="82" patternTransform="translate(0 574)" patternUnits="userSpaceOnUse" viewBox="0 0 82 82">
      <rect class="cls-1" width="82" height="82"/>
      <g>
        <line class="cls-2" y1="82.08" x2="82" y2="82.08"/>
        <line class="cls-2" y1="79.04" x2="82" y2="79.04"/>
        <line class="cls-2" y1="76" x2="82" y2="76"/>
        <line class="cls-2" y1="72.97" x2="82" y2="72.97"/>
        <line class="cls-2" y1="69.93" x2="82" y2="69.93"/>
        <line class="cls-2" y1="66.89" x2="82" y2="66.89"/>
        <line class="cls-2" y1="63.85" x2="82" y2="63.85"/>
        <line class="cls-2" y1="60.82" x2="82" y2="60.82"/>
        <line class="cls-2" y1="57.78" x2="82" y2="57.78"/>
        <line class="cls-2" y1="54.74" x2="82" y2="54.74"/>
        <line class="cls-2" y1="51.7" x2="82" y2="51.7"/>
        <line class="cls-2" y1="48.67" x2="82" y2="48.67"/>
        <line class="cls-2" y1="45.63" x2="82" y2="45.63"/>
        <line class="cls-2" y1="42.59" x2="82" y2="42.59"/>
        <line class="cls-2" y1="39.56" x2="82" y2="39.56"/>
        <line class="cls-2" y1="36.52" x2="82" y2="36.52"/>
        <line class="cls-2" y1="33.48" x2="82" y2="33.48"/>
        <line class="cls-2" y1="30.44" x2="82" y2="30.44"/>
        <line class="cls-2" y1="27.41" x2="82" y2="27.41"/>
        <line class="cls-2" y1="24.37" x2="82" y2="24.37"/>
        <line class="cls-2" y1="21.33" x2="82" y2="21.33"/>
        <line class="cls-2" y1="18.3" x2="82" y2="18.3"/>
        <line class="cls-2" y1="15.26" x2="82" y2="15.26"/>
        <line class="cls-2" y1="12.22" x2="82" y2="12.22"/>
        <line class="cls-2" y1="9.18" x2="82" y2="9.18"/>
        <line class="cls-2" y1="6.15" x2="82" y2="6.15"/>
        <line class="cls-2" y1="3.11" x2="82" y2="3.11"/>
      </g>
      <line class="cls-2" y1="0.08" x2="82" y2="0.08"/>
    </pattern>
  </defs>
  <title>dj-booth</title>
  <g>
    <ellipse class="cls-3" cx="175.58" cy="86.52" rx="175.58" ry="34.46"/>
    <ellipse class="cls-4" cx="174.53" cy="114.78" rx="143.94" ry="16.24"/>
    <path class="cls-5" d="M1722.85,2478s-0.3,1.28-4.56,1.28-4.56-1.28-4.56-1.28A4.56,4.56,0,0,1,1722.85,2478Z" transform="translate(-1637.23 -2393.49)"/>
    <path class="cls-6" d="M1957,2500.5c-13.61-12.54-72.54-22.12-143.2-22.36s-129.38,8.93-143.19,21.34l22.14,5.27c26.55-7.1,70.84-11.66,121-11.5h0.14c50.15-.16,94.45,4.4,121,11.5Z" transform="translate(-1637.23 -2393.49)"/>
    <g>
      <path class="cls-7" d="M1729.5,2490.78a4,4,0,0,1-2.74,3.93c-1.51.29-2.74-1-2.74-2.87a4,4,0,0,1,2.74-3.93C1728.27,2487.62,1729.5,2488.9,1729.5,2490.78Z" transform="translate(-1637.23 -2393.49)"/>
      <path class="cls-7" d="M1716.38,2492.54c-0.06,1.88-1.27,3.57-2.71,3.79s-2.56-1.13-2.5-3,1.27-3.57,2.71-3.79S1716.44,2490.67,1716.38,2492.54Z" transform="translate(-1637.23 -2393.49)"/>
      <path class="cls-7" d="M1702.83,2494.61c0,1.88-1,3.7-2.23,4.07s-2.23-.85-2.23-2.73,1-3.7,2.23-4.07S1702.83,2492.73,1702.83,2494.61Z" transform="translate(-1637.23 -2393.49)"/>
      <path class="cls-8" d="M1713.78,2493.23s5.32-1.68,5.32,3,0.78,15.12,4,15.12" transform="translate(-1637.23 -2393.49)"/>
      <path class="cls-8" d="M1700.82,2495.57s5.32-1.68,5.32,3,0.78,15.12,4,15.12" transform="translate(-1637.23 -2393.49)"/>
      <path class="cls-8" d="M1727.15,2491.31s5.32-1.68,5.32,3,0.78,18.17,4,18.17" transform="translate(-1637.23 -2393.49)"/>
    </g>
    <g>
      <path class="cls-7" d="M1897,2491.31a4,4,0,0,0,2.74,3.93c1.51,0.29,2.74-1,2.74-2.87a4,4,0,0,0-2.74-3.93C1898.18,2488.15,1897,2489.43,1897,2491.31Z" transform="translate(-1637.23 -2393.49)"/>
      <path class="cls-7" d="M1910.07,2493.07c0.06,1.88,1.27,3.57,2.71,3.79s2.56-1.13,2.5-3-1.27-3.57-2.71-3.79S1910,2491.2,1910.07,2493.07Z" transform="translate(-1637.23 -2393.49)"/>
      <path class="cls-7" d="M1923.62,2495.14c0,1.88,1,3.7,2.23,4.07s2.23-.85,2.23-2.73-1-3.7-2.23-4.07S1923.62,2493.26,1923.62,2495.14Z" transform="translate(-1637.23 -2393.49)"/>
      <path class="cls-8" d="M1912.67,2493.76s-5.32-1.68-5.32,3-0.78,15.12-4,15.12" transform="translate(-1637.23 -2393.49)"/>
      <path class="cls-8" d="M1925.63,2496.1s-5.32-1.68-5.32,3-0.78,15.12-4,15.12" transform="translate(-1637.23 -2393.49)"/>
      <path class="cls-8" d="M1899.3,2491.84s-5.32-1.68-5.32,3-0.78,18.17-4,18.17" transform="translate(-1637.23 -2393.49)"/>
    </g>
    <path class="cls-9" d="M1904.46,2478.53s0.3,1.28,4.56,1.28,4.56-1.28,4.56-1.28A4.56,4.56,0,1,0,1904.46,2478.53Z" transform="translate(-1637.23 -2393.49)"/>
    <path class="cls-6" d="M1643.79,2497.93l0.05-15.72c0-17.6,76.16-31.62,170-31.31s170,14.83,169.94,32.43l-0.05,15.72c0-17.6-76.05-32.12-169.94-32.43-79.22-.26-145.79,9.68-164.68,23.37Z" transform="translate(-1637.23 -2393.49)"/>
    <polyline class="cls-10" points="29.8 72.71 29.8 88.43 50.31 97.81 50.31 110.29"/>
    <polyline class="cls-10" points="90.81 61.53 90.81 77.19 102.78 88.15 102.78 103.11"/>
    <path class="cls-3" d="M1898.45,2455.32c-40.14-6.53-151-4.42-169.44-.44l12.06,26.43s50.56-3.16,72.75-3.16c20.34,0,55.86,1.73,72.21,3.81Z" transform="translate(-1637.23 -2393.49)"/>
    <path class="cls-3" d="M1643.84,2481.63c0,17.6,76.05,32.12,169.94,32.43s170-13.71,170-31.31l-0.05,15.72c0,17.6-76.16,31.62-170,31.31s-170-14.83-169.94-32.43Z" transform="translate(-1637.23 -2393.49)"/>
    <path class="cls-11" d="M1978.55,2491.21" transform="translate(-1637.23 -2393.49)"/>
    <polyline class="cls-10" points="250.37 103.22 250.37 88.63 262.4 77.75 262.4 62.07"/>
    <polyline class="cls-10" points="323.37 73.62 323.37 89.39 302.8 98.64 302.8 111.03"/>
    <polyline class="cls-10" points="176.53 99.76 176.58 85.08 176.61 73.12 176.61 57.41"/>
    <path class="cls-11" d="M1940,2492.13" transform="translate(-1637.23 -2393.49)"/>
    <path class="cls-11" d="M1692.76,2504.75" transform="translate(-1637.23 -2393.49)"/>
    <path class="cls-12" d="M1694.93,2483s-0.3,1.28-4.56,1.28-4.56-1.28-4.56-1.28A4.56,4.56,0,1,1,1694.93,2483Z" transform="translate(-1637.23 -2393.49)"/>
    <path class="cls-9" d="M1708.64,2480.13s-0.3,1.28-4.56,1.28-4.56-1.28-4.56-1.28A4.56,4.56,0,0,1,1708.64,2480.13Z" transform="translate(-1637.23 -2393.49)"/>
    <path class="cls-5" d="M1670.62,2492.16s-0.3,1.28-4.56,1.28-4.56-1.28-4.56-1.28A4.56,4.56,0,0,1,1670.62,2492.16Z" transform="translate(-1637.23 -2393.49)"/>
    <path class="cls-5" d="M1932.38,2483.59s0.3,1.28,4.56,1.28,4.56-1.28,4.56-1.28A4.56,4.56,0,1,0,1932.38,2483.59Z" transform="translate(-1637.23 -2393.49)"/>
    <path class="cls-13" d="M1736.56,2459.89l7.81,16.15a3,3,0,0,0,3,1.68c8.47-.8,41.26-3.74,66.38-3.74l-1-21.59c-19.95-.22-51.43.55-73.88,3.22A3,3,0,0,0,1736.56,2459.89Z" transform="translate(-1637.23 -2393.49)"/>
    <path class="cls-13" d="M1891.6,2460l-7.46,16.08a3,3,0,0,1-3,1.72c-8.46-.82-40.66-3.79-65.7-3.79l1-21.59c20-.22,50.53.65,72.87,3.34A3,3,0,0,1,1891.6,2460Z" transform="translate(-1637.23 -2393.49)"/>
    <path class="cls-14" d="M1736.56,2459.89l7.81,16.15a3,3,0,0,0,3,1.68c8.47-.8,41.26-3.74,66.38-3.74l-1-21.59c-19.95-.22-51.43.55-73.88,3.22A3,3,0,0,0,1736.56,2459.89Z" transform="translate(-1637.23 -2393.49)"/>
    <path class="cls-14" d="M1891.6,2460l-7.46,16.08a3,3,0,0,1-3,1.72c-8.46-.82-40.66-3.79-65.7-3.79l1-21.59c20-.22,50.53.65,72.87,3.34A3,3,0,0,1,1891.6,2460Z" transform="translate(-1637.23 -2393.49)"/>
    <polyline class="cls-15" points="107.07 80.48 109.96 72.81 112.33 76.89 113.73 72.05 120.9 80.48 124.21 63.14 126.21 67.11 128.21 64.23 134.09 72.05 137.96 65.73 144.21 72.64 146.09 67.11 167.09 63.14 175.59 77.58 188.34 64.76 195.41 73.95 202.09 69.43 205.46 73.13 214.21 66.33 217.83 72.05 219.09 70.03 220.84 73.39 227.46 64.23 234.25 76.65 236.81 71.28 240.21 77.58 244.57 72.53 248.09 80.47"/>
    <path class="cls-12" d="M1918.67,2480.67s0.3,1.28,4.56,1.28,4.56-1.28,4.56-1.28A4.56,4.56,0,0,0,1918.67,2480.67Z" transform="translate(-1637.23 -2393.49)"/>
    <path class="cls-9" d="M1958,2492.16s0.3,1.28,4.56,1.28,4.56-1.28,4.56-1.28A4.56,4.56,0,0,0,1958,2492.16Z" transform="translate(-1637.23 -2393.49)"/>
    <g>
      <path class="cls-16" d="M1849.92,2393.49a6.79,6.79,0,0,0-5.69,10.49,24,24,0,0,1-12.55,9.38c-4.56,1.47-14.52,5.28-17.87,11.53-3.34-6.25-13.3-10.07-17.87-11.53a24,24,0,0,1-12.55-9.38,6.79,6.79,0,1,0-6.29,3.06c2.82,5.49,8.7,10.3,15.28,12.42,9.54,3.06,15.91,7.59,16.62,11.81l0.58,3.47,4.22-4.89,4.22,4.89,0.58-3.47c0.71-4.22,7.08-8.75,16.62-11.81,6.59-2.12,12.47-6.92,15.28-12.42A6.79,6.79,0,0,0,1849.92,2393.49Z" transform="translate(-1637.23 -2393.49)"/>
      <circle class="cls-17" cx="140.52" cy="6.85" r="3.65"/>
      <circle class="cls-16" cx="140.52" cy="6.85" r="2.13"/>
      <circle class="cls-17" cx="213.07" cy="6.85" r="3.65"/>
      <circle class="cls-16" cx="213.07" cy="6.85" r="2.13"/>
      <path class="cls-18" d="M1900.74,2442.2a4.24,4.24,0,0,0-5.89,1.1,4.19,4.19,0,0,0-.21.38,15.75,15.75,0,0,0-5.76,1.44,15.75,15.75,0,0,0-.75-5.89,4.13,4.13,0,0,0,.28-0.33,4.24,4.24,0,1,0-6.69.39,4.16,4.16,0,0,0,2.46,1.38,10,10,0,0,1,.32,2.51c0.07,2.89-.77,4.74-2.34,7.17-0.53.82-1,1.59-1.24,2-3.07,5.25-10.68,16.13-19.72,18.13-5.72,1.16-7.6,0-23.05-13l-0.17.21a32.26,32.26,0,0,1-2.7-11.68,22,22,0,1,0-44.05,0c0,3.89-1.56,8.42-3.86,13.28-13.52,11.45-15.5,12.35-20.95,11.25-9-2-16.65-12.88-19.72-18.13-0.23-.39-0.71-1.16-1.24-2-1.57-2.43-2.41-4.27-2.34-7.17a10,10,0,0,1,.32-2.51,4.16,4.16,0,0,0,2.46-1.38,4.23,4.23,0,1,0-6.69-.39,4.13,4.13,0,0,0,.28.33,15.75,15.75,0,0,0-.75,5.89,15.75,15.75,0,0,0-5.76-1.44,4.13,4.13,0,0,0-.21-0.38,4.24,4.24,0,0,0-5.89-1.1,4.3,4.3,0,0,0-1.1,5.89,4.22,4.22,0,0,0,7.11-.21,7.22,7.22,0,0,1,1.39.27,14.28,14.28,0,0,1,8.08,6.13c0.31,0.49.58,0.91,0.72,1.16,3.25,5.57,10.58,19.25,21.63,21.15,6.12,1.05,8.92.74,15-3.66-13.56,24.06-28.4,58.86,33.58,58.86,65.21,0,45.17-35.68,31.5-61.22,8.07,5.89,10,6.22,17.17,5,11-1.9,19.38-14.59,22.63-20.15,0.14-.25.41-0.67,0.72-1.16a14.29,14.29,0,0,1,8.08-6.13,7.21,7.21,0,0,1,1.39-.27,4.22,4.22,0,0,0,7.11.21A4.3,4.3,0,0,0,1900.74,2442.2Z" transform="translate(-1637.23 -2393.49)"/>
      <path class="cls-19" d="M1813.25,2423.93a22,22,0,0,0-20.29,13.44h40.58A22,22,0,0,0,1813.25,2423.93Z" transform="translate(-1637.23 -2393.49)"/>
      <g>
        <path class="cls-20" d="M1813.25,2419c-17.92,0-25.25,17.46-25.25,17.46l2.26,5s7-17.25,23-17.25,23,17.25,23,17.25l2.26-5S1831.17,2419,1813.25,2419Z" transform="translate(-1637.23 -2393.49)"/>
        <path class="cls-21" d="M1840.76,2458.72c2.64,0,7-4.28,7-9.55s-4.33-9.55-7-9.55v19.1Z" transform="translate(-1637.23 -2393.49)"/>
        <rect class="cls-20" x="1836.24" y="2436.46" width="4.52" height="25.84" rx="2.26" ry="2.26" transform="translate(2039.78 2505.28) rotate(-180)"/>
      </g>
      <g>
        <path class="cls-21" d="M1785.74,2458.72c-2.64,0-7-4.28-7-9.55s4.33-9.55,7-9.55v19.1Z" transform="translate(-1637.23 -2393.49)"/>
        <rect class="cls-20" x="148.51" y="42.97" width="4.52" height="25.84" rx="2.26" ry="2.26"/>
      </g>
      <g>
        <g class="cls-22">
          <path class="cls-23" d="M1834.09,2444.25h-41.69a3.06,3.06,0,0,0-2.87,4.16c1.67,4.32,5,10.25,10.62,10.25,5,0,8.2-5.1,10-8.89,0,0,1.1-2.22,3.07-2.22s3.07,2.22,3.07,2.22c1.82,3.79,5,8.89,10,8.89,5.58,0,8.94-5.93,10.62-10.25A3.06,3.06,0,0,0,1834.09,2444.25Z" transform="translate(-1637.23 -2393.49)"/>
        </g>
        <path class="cls-16" d="M1834.09,2442.25h-41.69a3.06,3.06,0,0,0-2.87,4.16c1.67,4.32,5,10.25,10.62,10.25,5,0,8.2-5.1,10-8.89,0,0,1.1-2.22,3.07-2.22s3.07,2.22,3.07,2.22c1.82,3.79,5,8.89,10,8.89,5.58,0,8.94-5.93,10.62-10.25A3.06,3.06,0,0,0,1834.09,2442.25Z" transform="translate(-1637.23 -2393.49)"/>
      </g>
      <polygon class="cls-13" points="163.54 48.76 158.24 55.79 163.54 55.79 161.42 61.82 169.75 53.72 163.96 53.72 163.54 48.76"/>
      <polygon class="cls-13" points="189.21 48.76 183.9 55.79 189.21 55.79 187.09 61.82 195.41 53.72 189.63 53.72 189.21 48.76"/>
      <path class="cls-24" d="M1796.39,2467.28h0a3.07,3.07,0,0,1-1.29-4.13l1.53-2.92,5.42,2.84-1.53,2.92A3.07,3.07,0,0,1,1796.39,2467.28Z" transform="translate(-1637.23 -2393.49)"/>
      <path class="cls-24" d="M1807.47,2470.66h0a3.07,3.07,0,0,1-2.58-3.47l0.48-3.26,6.06,0.89-0.48,3.26A3.07,3.07,0,0,1,1807.47,2470.66Z" transform="translate(-1637.23 -2393.49)"/>
      <path class="cls-24" d="M1830.11,2467.28h0a3.07,3.07,0,0,0,1.29-4.13l-1.53-2.92-5.42,2.84L1826,2466A3.07,3.07,0,0,0,1830.11,2467.28Z" transform="translate(-1637.23 -2393.49)"/>
      <path class="cls-24" d="M1819,2470.66h0a3.07,3.07,0,0,0,2.58-3.47l-0.48-3.26-6.06.89,0.48,3.26A3.07,3.07,0,0,0,1819,2470.66Z" transform="translate(-1637.23 -2393.49)"/>
      <path class="cls-17" d="M1820.24,2435.12a19.94,19.94,0,0,1-14.57,0,3.41,3.41,0,0,1-1.94-4.12h0a2.46,2.46,0,0,1,3.27-1.58,16.32,16.32,0,0,0,11.92,0,2.46,2.46,0,0,1,3.27,1.58h0A3.41,3.41,0,0,1,1820.24,2435.12Z" transform="translate(-1637.23 -2393.49)"/>
      <line class="cls-25" x1="179.06" y1="44.03" x2="179.9" y2="33.26"/>
      <line class="cls-25" x1="172.04" y1="44.03" x2="171.2" y2="33.26"/>
      <path class="cls-26" d="M1796.52,2458.72s3.12,5.76,16.87,5.76" transform="translate(-1637.23 -2393.49)"/>
      <path class="cls-26" d="M1830,2458.72s-3.12,5.76-16.87,5.76" transform="translate(-1637.23 -2393.49)"/>
      <path class="cls-27" d="M1795.55,2462.89a21.81,21.81,0,0,0,5.59,2.52l0.91-1.75-5.42-2.84Z" transform="translate(-1637.23 -2393.49)"/>
      <path class="cls-27" d="M1805.09,2466.36a43.67,43.67,0,0,0,6.09.67l0.24-1.62-6.06-.89Z" transform="translate(-1637.23 -2393.49)"/>
      <path class="cls-27" d="M1821.14,2464.52l-6.06.89,0.24,1.62a43.29,43.29,0,0,0,6.08-.7Z" transform="translate(-1637.23 -2393.49)"/>
      <path class="cls-27" d="M1829.87,2460.82l-5.42,2.84,0.88,1.67a21.1,21.1,0,0,0,5.55-2.59Z" transform="translate(-1637.23 -2393.49)"/>
    </g>
    <g>
      <g class="cls-28">
        <path class="cls-23" d="M1785.89,2528.42c-20.8-14.83-10.67-47.12-10.67-47.12h0C1766.19,2499.44,1760.79,2520.37,1785.89,2528.42Z" transform="translate(-1637.23 -2393.49)"/>
      </g>
      <g class="cls-28">
        <path class="cls-23" d="M1849.68,2479.94c2,6.52,9.43,35.24-9.17,48.73C1867.07,2520.74,1859.47,2499.16,1849.68,2479.94Z" transform="translate(-1637.23 -2393.49)"/>
      </g>
    </g>
    <path class="cls-29" d="M1967.4,2501.36c-15.09,5.89-39.7,10.74-70.12,13.86-25.06,2.7-53.84,3.24-84.46,3.24-80.4,0-148.17-10.6-169-25.07,0,2.78,0,54.79,0,57.18,0,17.6,76.05,32.12,169.94,32.43s170-13.71,170-31.31l0-59.82A54.86,54.86,0,0,1,1967.4,2501.36Z" transform="translate(-1637.23 -2393.49)"/>
    <g>
      <g>
        <polyline class="cls-30" points="54.73 143.42 54.73 160.61 154.01 160.61 154.01 149.86"/>
        <polygon class="cls-30" points="197.54 149.86 197.54 160.61 297 160.61 297 143.42 197.54 149.86"/>
        <rect class="cls-6" x="154.01" y="141.47" width="43.54" height="19.14"/>
        <rect class="cls-6" x="155.27" y="143.04" width="41.1" height="17.57"/>
        <g>
          <path class="cls-3" d="M1833.59,2536.53q-20.55.39-41.1,0,2.1-11.42,4.13-22.86,16.37,0.25,32.75,0Q1831.44,2525.1,1833.59,2536.53Z" transform="translate(-1637.23 -2393.49)"/>
          <g>
            <path class="cls-3" d="M1791.23,2543.35q-49.72-1-99.27-6.44,15.43-13.27,30.14-27,37.2,3.16,74.52,3.72Q1794,2528.52,1791.23,2543.35Z" transform="translate(-1637.23 -2393.49)"/>
            <path class="cls-16" d="M1758.06,2516.35c-17.09-.83-35.06,2.2-40.82,7.78-6.46,6.22,5,13.58,26.51,14.94s40.67-4.36,42.47-11.12C1787.84,2521.9,1775.15,2517.21,1758.06,2516.35Zm-9.2,14.73c-7.7-.44-14.93-3.29-13-5.7s11.47-6.46,18.52-6.09,13.47,5.55,12.31,7.93S1756.56,2531.54,1748.86,2531.09Z" transform="translate(-1637.23 -2393.49)"/>
            <path class="cls-16" d="M1757.92,2514.82c-16.75-.83-34.36,2.2-40,7.78-6.33,6.22,4.88,13.58,26,14.94s39.86-4.36,41.62-11.12C1787.11,2520.37,1774.66,2515.68,1757.92,2514.82Zm-9,14.73c-7.55-.44-12.1-2.93-10.26-5.34s8.71-3.74,15.62-3.37,11.63,2.46,10.5,4.84S1756.45,2530,1748.9,2529.55Z" transform="translate(-1637.23 -2393.49)"/>
            <path class="cls-16" d="M1757,2525.32c-0.55,1-3.41,1.67-6.38,1.5s-4.84-1.13-4.18-2.1,3.48-1.58,6.34-1.42S1757.52,2524.35,1757,2525.32Z" transform="translate(-1637.23 -2393.49)"/>
          </g>
          <g>
            <path class="cls-3" d="M1934.22,2536.91c-33,3.64-66.31,5.79-99.45,6.44q-2.76-14.83-5.4-29.67c24.87-.38,49.91-1.62,74.71-3.72Q1918.79,2523.64,1934.22,2536.91Z" transform="translate(-1637.23 -2393.49)"/>
            <path class="cls-16" d="M1867.7,2516.35c-16.74.86-29.18,5.55-27.6,11.59,1.76,6.76,20.52,12.47,41.62,11.12s32.31-8.72,26-14.94C1902.06,2518.55,1884.45,2515.53,1867.7,2516.35Zm9.92,14.2c-10.09.6-19.63-1.84-21.21-5.16s4.81-6,14-6.47,18.53,1.41,20.89,4.5S1887.72,2530,1877.62,2530.55Z" transform="translate(-1637.23 -2393.49)"/>
            <path class="cls-16" d="M1867.7,2514.82c-16.74.86-29.18,5.55-27.6,11.59,1.76,6.76,20.52,12.47,41.62,11.12s32.31-8.72,26-14.94C1902.06,2517,1884.45,2514,1867.7,2514.82Zm9,14.73c-7.55.45-14.68-1.38-15.86-3.86s3.59-4.46,10.5-4.84,13.86,1.06,15.62,3.37S1884.27,2529.11,1876.72,2529.55Z" transform="translate(-1637.23 -2393.49)"/>
            <path class="cls-16" d="M1879.21,2524.72c0.66,1-1.21,1.93-4.18,2.1s-5.83-.51-6.38-1.5,1.35-1.85,4.22-2S1878.56,2523.77,1879.21,2524.72Z" transform="translate(-1637.23 -2393.49)"/>
          </g>
          <g>
            <path class="cls-31" d="M1805.93,2535.72h-0.55c-0.74,0-1.32-.33-1.28-0.72q0.6-7.34,1.18-14.68a1.11,1.11,0,0,1,1.18-.53h0.47a1,1,0,0,1,1.11.54q-0.36,7.34-.73,14.69A1.25,1.25,0,0,1,1805.93,2535.72Z" transform="translate(-1637.23 -2393.49)"/>
            <path class="cls-31" d="M1821.57,2535.71H1821a1.27,1.27,0,0,1-1.39-.7q-0.5-7.34-1-14.69a1,1,0,0,1,1.1-.54h0.47a1.13,1.13,0,0,1,1.19.53q0.71,7.34,1.44,14.68C1822.88,2535.38,1822.31,2535.7,1821.57,2535.71Z" transform="translate(-1637.23 -2393.49)"/>
            <path class="cls-16" d="M1822.07,2523.44l-3.59,0a1,1,0,0,1-1.09-.51l0-.86a0.89,0.89,0,0,1,1-.5l3.52,0a1,1,0,0,1,1.09.49l0.1,0.86C1823.1,2523.2,1822.65,2523.43,1822.07,2523.44Z" transform="translate(-1637.23 -2393.49)"/>
            <path class="cls-16" d="M1807.91,2531l-3.88,0a0.93,0.93,0,0,1-1.09-.6l0.09-1a1.1,1.1,0,0,1,1.17-.56l3.8,0a1,1,0,0,1,1.1.58l0,1A1.05,1.05,0,0,1,1807.91,2531Z" transform="translate(-1637.23 -2393.49)"/>
            <path class="cls-32" d="M1809.57,2515.84c0,0.46-1.21.82-2.68,0.81s-2.62-.39-2.57-0.84a3.05,3.05,0,0,1,2.68-1.72A2.83,2.83,0,0,1,1809.57,2515.84Z" transform="translate(-1637.23 -2393.49)"/>
            <path class="cls-12" d="M1822.27,2515.8c0.05,0.45-1.1.84-2.56,0.85s-2.67-.36-2.69-0.81a2.8,2.8,0,0,1,2.56-1.75A3.09,3.09,0,0,1,1822.27,2515.8Z" transform="translate(-1637.23 -2393.49)"/>
            <path class="cls-5" d="M1809.49,2518.15c0,0.48-1.25.86-2.75,0.85s-2.69-.41-2.64-0.89a3.2,3.2,0,0,1,2.75-1.9A3,3,0,0,1,1809.49,2518.15Z" transform="translate(-1637.23 -2393.49)"/>
            <path class="cls-9" d="M1822.53,2518.11c0.05,0.48-1.12.88-2.63,0.89s-2.74-.37-2.77-0.85a2.94,2.94,0,0,1,2.63-1.93A3.23,3.23,0,0,1,1822.53,2518.11Z" transform="translate(-1637.23 -2393.49)"/>
          </g>
          <g>
            <path class="cls-32" d="M1711.39,2533.94c0,2.38-10.78,2.38-10.78,0s2.41-4.3,5.39-4.3S1711.39,2531.56,1711.39,2533.94Z" transform="translate(-1637.23 -2393.49)"/>
            <path class="cls-31" d="M1707.51,2530.78c0,0.58-3,.58-3,0v-1.57a4.14,4.14,0,0,1,3.69-4.12l19.67-2.17,0.33,3-19.67,2.17a1.14,1.14,0,0,0-1,1.13v1.57Z" transform="translate(-1637.23 -2393.49)"/>
            <rect class="cls-33" x="1722.34" y="2522.54" width="7.58" height="4.14" rx="2.07" ry="2.07" transform="translate(-1872.71 -2215.21) rotate(-5.54)"/>
          </g>
          <g>
            <path class="cls-32" d="M1915.25,2533.94c0,2.38,10.78,2.38,10.78,0s-2.41-4.3-5.39-4.3S1915.25,2531.56,1915.25,2533.94Z" transform="translate(-1637.23 -2393.49)"/>
            <path class="cls-31" d="M1919.14,2530.78c0,0.58,3,.58,3,0v-1.57a4.14,4.14,0,0,0-3.69-4.12l-19.67-2.17-0.33,3,19.67,2.17a1.14,1.14,0,0,1,1,1.13v1.57Z" transform="translate(-1637.23 -2393.49)"/>
            <rect class="cls-33" x="1896.72" y="2522.54" width="7.58" height="4.14" rx="2.07" ry="2.07" transform="translate(1911.4 2827.29) rotate(-174.46)"/>
          </g>
        </g>
      </g>
      <g>
        <path class="cls-31" d="M1752.4,2521.67H1751l-0.53,3.16c-0.12.74,2.64,0.74,2.51,0Z" transform="translate(-1637.23 -2393.49)"/>
        <ellipse class="cls-34" cx="114.45" cy="128.18" rx="0.73" ry="0.15"/>
      </g>
      <g>
        <path class="cls-31" d="M1874.67,2521.67h-1.45l-0.53,3.16c-0.12.74,2.64,0.74,2.51,0Z" transform="translate(-1637.23 -2393.49)"/>
        <ellipse class="cls-34" cx="236.72" cy="128.18" rx="0.73" ry="0.15"/>
      </g>
      <g>
        <path class="cls-13" d="M1757.24,2529.13a37.36,37.36,0,0,1-8.34.43c-1-.06-2-0.16-2.93-0.3l-8.64,7.62c2.07,0.28,4.26.51,6.57,0.66a93,93,0,0,0,21.64-1.09Z" transform="translate(-1637.23 -2393.49)"/>
        <path class="cls-13" d="M1741.4,2515.23l6.54,5.78a40.91,40.91,0,0,1,6.31-.15l1.22,0.09,6.59-5.82q-2-.19-4.15-0.3A112.35,112.35,0,0,0,1741.4,2515.23Z" transform="translate(-1637.23 -2393.49)"/>
      </g>
      <g>
        <path class="cls-13" d="M1870.29,2520.93l1.07-.08a40.94,40.94,0,0,1,6.46.17l6.55-5.78a112.27,112.27,0,0,0-16.67-.42q-2,.11-4,0.29Z" transform="translate(-1637.23 -2393.49)"/>
        <path class="cls-13" d="M1879.79,2529.23c-1,.14-2,0.26-3.07.32a37.48,37.48,0,0,1-8.2-.4l-8.3,7.32a93.05,93.05,0,0,0,21.5,1.06c2.37-.15,4.61-0.38,6.72-0.68Z" transform="translate(-1637.23 -2393.49)"/>
      </g>
    </g>
    <path class="cls-3" d="M1740,2481.64" transform="translate(-1637.23 -2393.49)"/>
    <polygon class="cls-6" points="91.78 61.38 103.83 87.81 91.78 76.67 91.78 61.38"/>
    <polygon class="cls-6" points="261.22 61.82 261.22 77.62 248.79 88.46 261.22 61.82"/>
  </g>
</svg>
