<svg id="PC" xmlns="http://www.w3.org/2000/svg" viewBox="0 0 10.74 9.46">
  <defs>
    <style>
      .cls-1 {
        fill: #fff;
        opacity: 0.5;
      }
    </style>
  </defs>
  <title>effect-shape-5</title>
  <path class="cls-1" d="M662.36,2667.11s0,0,0-.06v0a0.88,0.88,0,0,0,0-.1l0-.08,0-.08,0-.08,0-.07,0-.06-0.07-.07,0,0-0.1-.07,0,0-0.12,0,0,0-0.12,0h-0.22l-5.46.49a0.89,0.89,0,0,0-.81.84l-0.18,3.3a2.48,2.48,0,1,0,1.65,2.48l0.27-4.91,3.66-.33-0.13,2.27a2.48,2.48,0,1,0,1.65,2.48l0.32-5.68S662.36,2667.13,662.36,2667.11Z" transform="translate(-651.63 -2666.24)"/>
</svg>
