<svg id="PC" xmlns="http://www.w3.org/2000/svg" viewBox="0 0 50 50">
  <defs>
    <style>
      .cls-1, .cls-2 {
        fill: #fff;
      }

      .cls-1 {
        opacity: 0.15;
      }

      .cls-2 {
        opacity: 0.3;
      }
    </style>
  </defs>
  <title>effect-shape-2</title>
  <g>
    <path class="cls-1" d="M197.47,2968.51a1,1,0,0,1-.71-0.32l-8.48-9.4-8.48,9.4a1,1,0,0,1-1.68-.69l0.65-12.64-12.65.65a1,1,0,0,1-.69-1.68l9.4-8.48-9.4-8.48a1,1,0,0,1-.24-1.08,1,1,0,0,1,.94-0.59l12.65,0.65-0.65-12.64a1,1,0,0,1,1.68-.69l8.48,9.4,8.48-9.4a1,1,0,0,1,1.68.69l-0.65,12.64,12.65-.65a1,1,0,0,1,.94.59,1,1,0,0,1-.24,1.08l-9.4,8.48,9.4,8.48a1,1,0,0,1,.24,1.08,1,1,0,0,1-.94.59l-12.65-.65,0.64,12.45a1,1,0,0,1-.93,1.2h0Zm-9.2-12.12a1,1,0,0,1,.71.32l7.39,8.18-0.56-11a1,1,0,0,1,1-1l11,0.56-8.18-7.38a1,1,0,0,1,0-1.43l8.18-7.38-11,.56a1,1,0,0,1-1-1l0.56-11L189,2934a1,1,0,0,1-1.43,0l-7.39-8.18,0.56,11a1,1,0,0,1-1,1l-11-.56,8.18,7.38a1,1,0,0,1,0,1.43l-8.18,7.38,11-.56a1,1,0,0,1,.73.28,1,1,0,0,1,.28.73l-0.56,11,7.39-8.18A1,1,0,0,1,188.27,2956.4Z" transform="translate(-163.27 -2920.34)"/>
    <path class="cls-2" d="M188.27,2970.34a1,1,0,0,1-.91-0.64l-4.24-11.93-11.44,5.44a1,1,0,0,1-1.28-1.29l5.43-11.43-11.93-4.24a1,1,0,0,1,0-1.82l11.93-4.24-5.43-11.43a1,1,0,0,1,1.28-1.29l11.44,5.44,4.24-11.93a1,1,0,0,1,1.81,0l4.24,11.93,11.44-5.44a1,1,0,0,1,1.28,1.29l-5.43,11.43,11.93,4.24a1,1,0,0,1,0,1.82l-11.93,4.24,5.43,11.43a1,1,0,0,1-1.28,1.29l-11.44-5.44-4.24,11.93A1,1,0,0,1,188.27,2970.34Zm-4.6-14.86a1,1,0,0,1,.91.64l3.69,10.38,3.69-10.38a1,1,0,0,1,1.32-.55l10,4.73-4.73-9.95a1,1,0,0,1,.55-1.32l10.38-3.69-10.38-3.69a1,1,0,0,1-.55-1.32l4.73-9.95-10,4.73a1,1,0,0,1-1.32-.55l-3.69-10.38-3.69,10.38a1,1,0,0,1-1.32.55l-10-4.73,4.73,9.95a1,1,0,0,1-.55,1.32l-10.38,3.69,10.38,3.69a1,1,0,0,1,.55,1.32l-4.73,9.95,10-4.73A1,1,0,0,1,183.67,2955.48Z" transform="translate(-163.27 -2920.34)"/>
  </g>
</svg>
