<svg id="PC" xmlns="http://www.w3.org/2000/svg" xmlns:xlink="http://www.w3.org/1999/xlink" viewBox="0 0 1280 800">
  <defs>
    <style>
      .cls-1 {
        fill: url(#名称未設定グラデーション_71);
      }

      .cls-2 {
        fill: url(#名称未設定グラデーション_71-2);
      }

      .cls-3 {
        fill: url(#名称未設定グラデーション_71-3);
      }

      .cls-4 {
        fill: url(#名称未設定グラデーション_71-4);
      }

      .cls-5, .cls-6, .cls-7, .cls-9 {
        fill: #fff;
      }

      .cls-5 {
        opacity: 0.15;
      }

      .cls-6 {
        opacity: 0.3;
      }

      .cls-7 {
        opacity: 0.2;
      }

      .cls-8 {
        opacity: 0.4;
      }

      .cls-10 {
        fill: none;
      }
    </style>
    <linearGradient id="名称未設定グラデーション_71" data-name="名称未設定グラデーション 71" x1="148.97" y1="2636.14" x2="250.27" y2="2577.66" gradientUnits="userSpaceOnUse">
      <stop offset="0" stop-color="#fff" stop-opacity="0.4"/>
      <stop offset="1" stop-color="#fff" stop-opacity="0.1"/>
    </linearGradient>
    <linearGradient id="名称未設定グラデーション_71-2" x1="565.72" y1="2865.04" x2="667.02" y2="2806.56" xlink:href="#名称未設定グラデーション_71"/>
    <linearGradient id="名称未設定グラデーション_71-3" x1="1083.76" y1="3024.91" x2="1185.06" y2="2966.42" xlink:href="#名称未設定グラデーション_71"/>
    <linearGradient id="名称未設定グラデーション_71-4" x1="165.69" y1="3120.7" x2="266.99" y2="3062.21" xlink:href="#名称未設定グラデーション_71"/>
  </defs>
  <title>effect-shape-3</title>
  <g>
    <path class="cls-1" d="M149,2636.14a1.82,1.82,0,0,1,.69-2.5l100.61-56-98.79,59.14a1.82,1.82,0,0,1-2.51-.65h0Z" transform="translate(0 -2401.73)"/>
    <path class="cls-2" d="M565.72,2865a1.82,1.82,0,0,1,.69-2.5l100.61-56-98.79,59.14a1.82,1.82,0,0,1-2.51-.65h0Z" transform="translate(0 -2401.73)"/>
    <path class="cls-3" d="M1083.76,3024.91a1.82,1.82,0,0,1,.69-2.5l100.61-56-98.79,59.14a1.82,1.82,0,0,1-2.51-.65h0Z" transform="translate(0 -2401.73)"/>
    <path class="cls-4" d="M165.69,3120.7a1.82,1.82,0,0,1,.69-2.5l100.61-56-98.79,59.14a1.82,1.82,0,0,1-2.51-.65h0Z" transform="translate(0 -2401.73)"/>
    <g>
      <path class="cls-5" d="M197.47,2968.51a1,1,0,0,1-.71-0.32l-8.48-9.4-8.48,9.4a1,1,0,0,1-1.68-.69l0.65-12.64-12.65.65a1,1,0,0,1-.69-1.68l9.4-8.48-9.4-8.48a1,1,0,0,1-.24-1.08,1,1,0,0,1,.94-0.59l12.65,0.65-0.65-12.64a1,1,0,0,1,1.68-.69l8.48,9.4,8.48-9.4a1,1,0,0,1,1.68.69l-0.65,12.64,12.65-.65a1,1,0,0,1,.94.59,1,1,0,0,1-.24,1.08l-9.4,8.48,9.4,8.48a1,1,0,0,1,.24,1.08,1,1,0,0,1-.94.59l-12.65-.65,0.64,12.45a1,1,0,0,1-.93,1.2h0Zm-9.2-12.12a1,1,0,0,1,.71.32l7.39,8.18-0.56-11a1,1,0,0,1,1-1l11,0.56-8.18-7.38a1,1,0,0,1,0-1.43l8.18-7.38-11,.56a1,1,0,0,1-1-1l0.56-11L189,2934a1,1,0,0,1-1.43,0l-7.39-8.18,0.56,11a1,1,0,0,1-1,1l-11-.56,8.18,7.38a1,1,0,0,1,0,1.43l-8.18,7.38,11-.56a1,1,0,0,1,.73.28,1,1,0,0,1,.28.73l-0.56,11,7.39-8.18A1,1,0,0,1,188.27,2956.4Z" transform="translate(0 -2401.73)"/>
      <path class="cls-6" d="M188.27,2970.34a1,1,0,0,1-.91-0.64l-4.24-11.93-11.44,5.44a1,1,0,0,1-1.28-1.29l5.43-11.43-11.93-4.24a1,1,0,0,1,0-1.82l11.93-4.24-5.43-11.43a1,1,0,0,1,1.28-1.29l11.44,5.44,4.24-11.93a1,1,0,0,1,1.81,0l4.24,11.93,11.44-5.44a1,1,0,0,1,1.28,1.29l-5.43,11.43,11.93,4.24a1,1,0,0,1,0,1.82l-11.93,4.24,5.43,11.43a1,1,0,0,1-1.28,1.29l-11.44-5.44-4.24,11.93A1,1,0,0,1,188.27,2970.34Zm-4.6-14.86a1,1,0,0,1,.91.64l3.69,10.38,3.69-10.38a1,1,0,0,1,1.32-.55l10,4.73-4.73-9.95a1,1,0,0,1,.55-1.32l10.38-3.69-10.38-3.69a1,1,0,0,1-.55-1.32l4.73-9.95-10,4.73a1,1,0,0,1-1.32-.55l-3.69-10.38-3.69,10.38a1,1,0,0,1-1.32.55l-10-4.73,4.73,9.95a1,1,0,0,1-.55,1.32l-10.38,3.69,10.38,3.69a1,1,0,0,1,.55,1.32l-4.73,9.95,10-4.73A1,1,0,0,1,183.67,2955.48Z" transform="translate(0 -2401.73)"/>
    </g>
    <g>
      <path class="cls-5" d="M1099.93,2682.77a1,1,0,0,1-.71-0.32l-8.48-9.4-8.48,9.4a1,1,0,0,1-1.68-.69l0.65-12.64-12.65.65a1,1,0,0,1-.69-1.68l9.4-8.48-9.4-8.48a1,1,0,0,1-.24-1.08,1,1,0,0,1,.94-0.59l12.65,0.65-0.65-12.64a1,1,0,0,1,1.68-.69l8.48,9.4,8.48-9.4a1,1,0,0,1,1.68.69l-0.65,12.64,12.65-.65a1,1,0,0,1,.94.59,1,1,0,0,1-.24,1.08l-9.4,8.48,9.4,8.48a1,1,0,0,1,.24,1.08,1,1,0,0,1-.94.59l-12.65-.65,0.64,12.45a1,1,0,0,1-.93,1.2h0Zm-9.2-12.12a1,1,0,0,1,.71.32l7.39,8.18-0.56-11a1,1,0,0,1,1-1l11,0.56-8.18-7.38a1,1,0,0,1,0-1.43l8.18-7.38-11,.56a1,1,0,0,1-1-1l0.56-11-7.39,8.18a1,1,0,0,1-1.43,0l-7.39-8.18,0.56,11a1,1,0,0,1-1,1l-11-.56,8.18,7.38a1,1,0,0,1,0,1.43l-8.18,7.38,11-.56a1,1,0,0,1,.73.28,1,1,0,0,1,.28.73l-0.56,11L1090,2671A1,1,0,0,1,1090.73,2670.66Z" transform="translate(0 -2401.73)"/>
      <path class="cls-6" d="M1090.73,2684.6a1,1,0,0,1-.91-0.64l-4.24-11.93-11.44,5.44a1,1,0,0,1-1.28-1.29l5.43-11.43-11.93-4.24a1,1,0,0,1,0-1.82l11.93-4.24-5.43-11.43a1,1,0,0,1,1.28-1.29l11.44,5.44,4.24-11.93a1,1,0,0,1,1.81,0l4.24,11.93,11.44-5.44a1,1,0,0,1,1.28,1.29l-5.43,11.43,11.93,4.24a1,1,0,0,1,0,1.82l-11.93,4.24,5.43,11.43a1,1,0,0,1-1.28,1.29l-11.44-5.44-4.24,11.93A1,1,0,0,1,1090.73,2684.6Zm-4.6-14.86a1,1,0,0,1,.91.64l3.69,10.38,3.69-10.38a1,1,0,0,1,1.32-.55l10,4.73-4.73-9.95a1,1,0,0,1,.55-1.32l10.38-3.69-10.38-3.69a1,1,0,0,1-.55-1.32l4.73-9.95-10,4.73a1,1,0,0,1-1.32-.55l-3.69-10.38-3.69,10.38a1,1,0,0,1-1.32.55l-10-4.73,4.73,9.95a1,1,0,0,1-.55,1.32l-10.38,3.69,10.38,3.69a1,1,0,0,1,.55,1.32l-4.73,9.95,10-4.73A1,1,0,0,1,1086.13,2669.74Z" transform="translate(0 -2401.73)"/>
    </g>
    <path class="cls-7" d="M336.57,2680.1h0a10.31,10.31,0,0,0,7,7h0a10.31,10.31,0,0,0-7,7h0a10.31,10.31,0,0,0-7-7h0a10.31,10.31,0,0,0,7-7h0Z" transform="translate(0 -2401.73)"/>
    <path class="cls-7" d="M812.5,3130.73h0a10.31,10.31,0,0,0,7,7h0a10.31,10.31,0,0,0-7,7h0a10.31,10.31,0,0,0-7-7h0a10.31,10.31,0,0,0,7-7h0Z" transform="translate(0 -2401.73)"/>
    <path class="cls-7" d="M1175.06,3141.3h0a14.72,14.72,0,0,0,10,10h0a14.72,14.72,0,0,0-10,10h0a14.72,14.72,0,0,0-10-10h0a14.72,14.72,0,0,0,10-10h0Z" transform="translate(0 -2401.73)"/>
    <path class="cls-7" d="M1166.39,2859h0a10.31,10.31,0,0,0,7,7h0a10.31,10.31,0,0,0-7,7h0a10.31,10.31,0,0,0-7-7h0a10.31,10.31,0,0,0,7-7h0Z" transform="translate(0 -2401.73)"/>
    <path class="cls-7" d="M386,3019.12h0a14.72,14.72,0,0,0,10,10h0a14.72,14.72,0,0,0-10,10h0a14.72,14.72,0,0,0-10-10h0a14.72,14.72,0,0,0,10-10h0Z" transform="translate(0 -2401.73)"/>
    <path class="cls-7" d="M672.75,2473.13h0a14.72,14.72,0,0,0,10,10h0a14.72,14.72,0,0,0-10,10h0a14.72,14.72,0,0,0-10-10h0a14.72,14.72,0,0,0,10-10h0Z" transform="translate(0 -2401.73)"/>
    <path class="cls-7" d="M96,2807.92h0a14.72,14.72,0,0,0,10,10h0a14.72,14.72,0,0,0-10,10h0a14.72,14.72,0,0,0-10-10h0a14.72,14.72,0,0,0,10-10h0Z" transform="translate(0 -2401.73)"/>
    <g class="cls-8">
      <path class="cls-9" d="M350.57,2542.87a2.86,2.86,0,1,1-2.86,2.86,2.86,2.86,0,0,1,2.86-2.86m0-1.14a4,4,0,1,0,4,4,4,4,0,0,0-4-4h0Z" transform="translate(0 -2401.73)"/>
    </g>
    <g class="cls-8">
      <path class="cls-9" d="M1225.94,2561a5,5,0,1,1-5,5,5,5,0,0,1,5-5m0-2a7,7,0,1,0,7,7,7,7,0,0,0-7-7h0Z" transform="translate(0 -2401.73)"/>
    </g>
    <g class="cls-8">
      <path class="cls-9" d="M106,2457.08a5,5,0,1,1-5,5,5,5,0,0,1,5-5m0-2a7,7,0,1,0,7,7,7,7,0,0,0-7-7h0Z" transform="translate(0 -2401.73)"/>
    </g>
    <g class="cls-8">
      <path class="cls-9" d="M89.12,3134.87a2.86,2.86,0,1,1-2.86,2.86,2.86,2.86,0,0,1,2.86-2.86m0-1.14a4,4,0,1,0,4,4,4,4,0,0,0-4-4h0Z" transform="translate(0 -2401.73)"/>
    </g>
    <g class="cls-8">
      <path class="cls-9" d="M864.08,2633.57a2.86,2.86,0,1,1-2.86,2.86,2.86,2.86,0,0,1,2.86-2.86m0-1.14a4,4,0,1,0,4,4,4,4,0,0,0-4-4h0Z" transform="translate(0 -2401.73)"/>
    </g>
    <g class="cls-8">
      <path class="cls-9" d="M960.5,2998.12a5,5,0,1,1-5,5,5,5,0,0,1,5-5m0-2a7,7,0,1,0,7,7,7,7,0,0,0-7-7h0Z" transform="translate(0 -2401.73)"/>
    </g>
    <rect class="cls-10" width="1280" height="800"/>
  </g>
</svg>
